<svg version="1.2" xmlns="http://www.w3.org/2000/svg" viewBox="0 0 83 35" width="83" height="35">
	<title>Vector Smart Object-ai</title>
	<style>
		.s0 { fill: #231f20 } 
	</style>
	<g id="Layer 1">
		<g id="&lt;Group&gt;">
			<path id="&lt;Path&gt;" class="s0" d="m15.6 5.3c1-1.2 1.6-2.7 1.4-4.3-1.3 0.1-3 0.9-4 2-0.8 1-1.6 2.6-1.4 4.2 1.5 0.1 3.1-0.8 4-1.9z"/>
			<path id="&lt;Path&gt;" class="s0" d="m17 7.5c-2.2-0.2-4.1 1.2-5.2 1.2-1 0-2.7-1.2-4.4-1.2-2.3 0.1-4.5 1.4-5.6 3.4-2.4 4.1-0.7 10.1 1.7 13.4 1.1 1.7 2.5 3.5 4.3 3.4 1.7-0.1 2.3-1.1 4.4-1.1 2.1 0 2.7 1.1 4.5 1.1 1.8-0.1 3-1.7 4.1-3.3 1.3-1.9 1.9-3.7 1.9-3.8 0 0-3.6-1.4-3.6-5.4-0.1-3.4 2.8-5 2.9-5.1-1.6-2.3-4.1-2.6-5-2.6z"/>
			<path id="&lt;Compound Path&gt;" fill-rule="evenodd" class="s0" d="m39.3 2.9c4.8 0 8.2 3.3 8.2 8.1 0 4.8-3.4 8.1-8.3 8.1h-5.4v8.4h-3.9v-24.6zm-5.5 13h4.5c3.4 0 5.3-1.8 5.3-4.9 0-3.1-1.9-4.9-5.3-4.9h-4.5z"/>
			<path id="&lt;Compound Path&gt;" fill-rule="evenodd" class="s0" d="m48.5 22.4c0-3.2 2.4-5 6.9-5.2l4.9-0.3v-1.4c0-2-1.4-3.1-3.7-3.1-2 0-3.4 1-3.7 2.5h-3.5c0.1-3.2 3.1-5.5 7.3-5.5 4.4 0 7.3 2.3 7.3 5.8v12.3h-3.6v-3h-0.1c-1 2-3.2 3.2-5.7 3.2-3.6 0-6.1-2.1-6.1-5.3zm11.8-1.6v-1.4l-4.3 0.3c-2.5 0.1-3.7 1-3.7 2.6 0 1.5 1.3 2.5 3.3 2.5 2.7 0 4.7-1.7 4.7-4z"/>
			<path id="&lt;Path&gt;" class="s0" d="m67.3 34.1v-3c0.2 0.1 0.8 0.1 1.1 0.1 1.8 0 2.7-0.7 3.3-2.6l0.4-1.1-6.6-17.9h4.1l4.5 14.6h0.1l4.6-14.6h3.9l-6.8 18.8c-1.5 4.4-3.3 5.8-7.1 5.8-0.3 0-1.2-0.1-1.5-0.1z"/>
		</g>
	</g>
</svg>