<svg version="1.2" xmlns="http://www.w3.org/2000/svg" viewBox="0 0 72 43" width="72" height="43">
	<title>Vector Smart Object-ai</title>
	<style>
		.s0 { fill: #005e94 } 
		.s1 { fill: #fed01f } 
	</style>
	<g id="Layer 1">
		<g id="&lt;Group&gt;">
			<path id="&lt;Path&gt;" class="s0" d="m63.4 8.1h-3.3-15.3-3.4l-2.2 2.4-7.3 7.7-2.2 2.3h-3.3-15-3.4l2.2-2.4 1.1-1.1 2.2-2.4h-3.3-4.3-2.4c-1.8 0-3.3 1.4-3.3 3.2v6.2 0.6c0 1.7 1.5 3.2 3.3 3.2h0.9 34.8 2.5c1.9 0 4.4-1.1 5.6-2.4l5.8-6.2z"/>
			<path id="&lt;Path&gt;" class="s1" d="m67.8 0.8c1.9 0 3.3 1.5 3.3 3.3v6.7c0 1.8-1.4 3.2-3.3 3.2h-1.8-4.8-3.3l2.2-2.4 1.1-1.1 2.2-2.4h-22l-11.7 12.4h-21.8l15.6-16.7 0.6-0.6c1.3-1.3 3.8-2.4 5.6-2.4h0.8z"/>
			<path id="&lt;Compound Path&gt;" fill-rule="evenodd" class="s0" d="m7.6 39.5q0 0.8-0.3 1.4-0.3 0.5-0.9 0.8-0.6 0.4-1.4 0.5-0.7 0.1-1.6 0.1-0.4 0-0.7 0-0.4 0-0.7 0-0.3 0-0.6-0.1-0.3 0-0.5 0-0.4-0.1-0.6-0.3-0.1-0.1-0.1-0.6v-7.7q0-0.4 0.1-0.6 0.2-0.2 0.6-0.2 0.2-0.1 0.4-0.1 0.3 0 0.6 0 0.4-0.1 0.7-0.1 0.4 0 0.7 0 1 0 1.7 0.2 0.8 0.1 1.4 0.4 0.6 0.3 0.9 0.8 0.3 0.5 0.3 1.3v0.2q0 0.6-0.3 1.1-0.3 0.5-0.9 0.8 0.6 0.2 0.9 0.7 0.3 0.5 0.3 1.2zm-2.3-4.1q0-0.5-0.4-0.7-0.4-0.3-1.4-0.3h-0.5q-0.2 0-0.3 0-0.2 0-0.3 0v2.2h1.6q0.4 0 0.6 0 0.3-0.1 0.5-0.3 0.1-0.1 0.2-0.3 0-0.2 0-0.4zm0.1 3.9q0-0.5-0.3-0.8-0.3-0.4-1.1-0.4h-1.6v2.4h0.3q0.1 0 0.3 0 0.2 0 0.3 0h0.3q1 0 1.4-0.2 0.4-0.3 0.4-0.9zm9.7 2.7q0 0.1-0.1 0.2-0.1 0.1-0.2 0.1h-1.5q-0.1 0-0.2-0.1-0.1-0.1-0.1-0.2v-0.2q-0.4 0.3-0.8 0.4-0.5 0.2-1.1 0.2-0.4 0-0.8-0.1-0.5-0.1-0.8-0.4-0.3-0.3-0.5-0.7-0.2-0.4-0.2-1v-0.1q0-1.2 0.8-1.7 0.8-0.5 2.5-0.5h0.8v-0.5q0-0.5-0.3-0.7-0.3-0.1-0.8-0.1-0.3 0-0.6 0-0.3 0-0.6 0-0.3 0-0.6 0-0.2 0-0.4 0.1h-0.1q-0.1 0-0.1-0.1-0.1 0-0.1-0.2v-1q0-0.2 0.2-0.3 0.4-0.1 1.1-0.2 0.6-0.1 1.3-0.1 0.7 0 1.3 0.2 0.6 0.1 1 0.5 0.4 0.3 0.6 0.8 0.3 0.4 0.3 1.1zm-2.2-2.8h-0.8q-0.3 0-0.5 0-0.3 0.1-0.4 0.2-0.1 0.1-0.2 0.3-0.1 0.2-0.1 0.4v0.1q0 0.4 0.3 0.5 0.2 0.2 0.6 0.2 0.3 0 0.6-0.1 0.3-0.1 0.5-0.2zm10.3 3q0 0.1-0.2 0.1h-1.6q-0.1 0-0.2-0.1-0.1-0.1-0.1-0.2v-4.2q0-0.3 0-0.6 0-0.2-0.1-0.3-0.2-0.2-0.4-0.2-0.1-0.1-0.5-0.1-0.3 0-0.6 0.1-0.3 0.1-0.6 0.3v5q0 0.1-0.1 0.2-0.1 0.1-0.2 0.1h-1.6q-0.1 0-0.2-0.1-0.1-0.1-0.1-0.2v-6.7q0-0.1 0.1-0.2 0-0.1 0.1-0.1h1.6q0.1 0 0.2 0.1 0 0.1 0 0.2v0.3q0.6-0.4 1.1-0.6 0.5-0.1 1.1-0.1 0.8 0 1.2 0.2 0.5 0.3 0.8 0.6 0.2 0.4 0.3 1 0.1 0.5 0.1 1.1v4.2q0 0.1-0.1 0.2zm6.7-0.1q0 0.1-0.2 0.1-0.3 0.1-0.7 0.2-0.5 0-1.1 0-1.4 0-2.3-0.8-0.8-0.8-0.8-2.4v-1.1q0-1.5 0.8-2.4 0.9-0.8 2.3-0.8 0.6 0 1.1 0.1 0.4 0 0.7 0.1 0.2 0 0.2 0.1 0.1 0 0.1 0.2v1.1q0 0.1-0.1 0.2-0.1 0-0.2 0-0.4 0-0.7 0-0.4-0.1-0.9-0.1-0.3 0-0.5 0.1-0.2 0.1-0.3 0.3-0.2 0.1-0.3 0.4-0.1 0.3-0.1 0.7v1.1q0 0.4 0.1 0.7 0.1 0.3 0.3 0.5 0.1 0.1 0.3 0.2 0.2 0.1 0.5 0.1 0.5 0 0.9-0.1 0.3 0 0.7 0 0.1 0 0.2 0 0.1 0.1 0.1 0.2v1.1q0 0.2-0.1 0.2zm7.6-3q0 0.8-0.2 1.4-0.3 0.6-0.7 1-0.4 0.4-1 0.7-0.7 0.2-1.5 0.2-0.8 0-1.5-0.2-0.6-0.3-1-0.7-0.4-0.4-0.7-1-0.2-0.6-0.2-1.4v-0.9q0-0.8 0.2-1.4 0.3-0.6 0.7-1 0.4-0.4 1-0.7 0.7-0.2 1.5-0.2 0.8 0 1.5 0.2 0.6 0.3 1 0.7 0.4 0.4 0.7 1 0.2 0.6 0.2 1.4zm-2.2-0.9q0-1.5-1.2-1.5-0.6 0-0.9 0.4-0.3 0.3-0.3 1.1v0.9q0 0.8 0.3 1.2 0.3 0.4 0.9 0.4 1.2 0 1.2-1.6zm10.2 4q-0.1 0.1-0.2 0.1h-1.7q-0.1 0-0.2-0.1-0.1-0.1-0.1-0.2v-4.2q0-0.3 0-0.6 0-0.2-0.1-0.3-0.1-0.2-0.3-0.2-0.2-0.1-0.6-0.1-0.2 0-0.6 0.1-0.3 0.1-0.6 0.3v5q0 0.1-0.1 0.2-0.1 0.1-0.2 0.1h-1.6q-0.1 0-0.2-0.1-0.1-0.1-0.1-0.2v-6.7q0-0.1 0.1-0.2 0-0.1 0.2-0.1h1.5q0.1 0 0.2 0.1 0 0.1 0 0.2v0.3q0.6-0.4 1.1-0.6 0.5-0.1 1.1-0.1 0.8 0 1.2 0.2 0.5 0.3 0.8 0.6 0.2 0.4 0.3 1 0.1 0.5 0.1 1.1v4.2q0 0.1 0 0.2zm5.7 0.1q-0.3 0.1-0.6 0.1-0.2 0-0.5 0-0.5 0-1-0.1-0.4 0-0.7-0.3-0.3-0.2-0.4-0.7-0.1-0.4-0.1-1.1v-3.7l-1.1-0.1q-0.1-0.1-0.2-0.1-0.1-0.1-0.1-0.2v-0.8q0-0.1 0.1-0.2 0.1-0.1 0.2-0.1h1.1v-1q0-0.2 0-0.2 0.1-0.1 0.2-0.1l1.7-0.3q0.1 0 0.2 0.1 0 0 0 0.1v1.4h1.2q0.1 0 0.1 0.1 0.1 0.1 0.1 0.2v1q0 0.1-0.1 0.2 0 0.1-0.1 0.1h-1.2v3.7q0 0.3 0.1 0.5 0.1 0.1 0.4 0.1h0.7q0.2 0 0.2 0.2v1q0 0.2-0.2 0.2zm7.5-0.2q0 0.1-0.1 0.1-0.1 0.1-0.2 0.1h-1.5q-0.1 0-0.2-0.1-0.1 0-0.1-0.1v-0.3q-0.4 0.3-0.8 0.5-0.5 0.1-1.1 0.1-0.4 0-0.8-0.1-0.4-0.1-0.8-0.4-0.3-0.2-0.5-0.6-0.2-0.4-0.2-1.1v-0.1q0-1.1 0.8-1.6 0.8-0.5 2.5-0.5h0.8v-0.5q0-0.6-0.3-0.7-0.3-0.2-0.7-0.2-0.4 0-0.7 0-0.3 0-0.6 0-0.3 0.1-0.6 0.1-0.2 0-0.4 0h-0.1q-0.1 0-0.1 0-0.1-0.1-0.1-0.2v-1.1q0-0.2 0.3-0.2 0.3-0.1 1-0.2 0.6-0.1 1.3-0.1 0.7 0 1.3 0.1 0.6 0.2 1 0.5 0.4 0.3 0.6 0.8 0.3 0.5 0.3 1.2zm-2.2-2.9h-0.8q-0.3 0-0.5 0.1-0.3 0-0.4 0.2-0.1 0.1-0.2 0.3-0.1 0.1-0.1 0.4v0.1q0 0.4 0.3 0.5 0.2 0.1 0.6 0.1 0.3 0 0.6-0.1 0.3-0.1 0.5-0.2zm8.7 3q0 0-0.2 0.1-0.3 0-0.7 0.1-0.5 0.1-1.1 0.1-1.4 0-2.3-0.9-0.8-0.8-0.8-2.4v-1q0-1.6 0.8-2.4 0.9-0.9 2.3-0.9 0.6 0 1.1 0.1 0.4 0.1 0.7 0.1 0.2 0.1 0.2 0.1 0.1 0.1 0.1 0.2v1.2q0 0.1-0.1 0.1 0 0.1-0.1 0.1h-0.1q-0.3-0.1-0.7-0.1-0.3 0-0.9 0-0.2 0-0.5 0.1-0.2 0-0.3 0.2-0.2 0.2-0.2 0.5-0.1 0.3-0.1 0.7v1q0 0.5 0.1 0.8 0 0.2 0.2 0.4 0.1 0.2 0.3 0.3 0.3 0 0.5 0 0.6 0 0.9 0 0.4 0 0.7-0.1h0.1q0.1 0 0.1 0.1 0.1 0 0.1 0.2v1.1q0 0.1-0.1 0.2zm5.7 0.2q-0.3 0-0.6 0-0.2 0.1-0.5 0.1-0.5 0-1-0.1-0.4-0.1-0.7-0.3-0.2-0.3-0.4-0.7-0.1-0.4-0.1-1.1v-3.7l-1.1-0.2q-0.1 0-0.2-0.1-0.1 0-0.1-0.1v-0.9q0-0.1 0.1-0.2 0.1-0.1 0.2-0.1h1.1v-1q0-0.1 0-0.2 0.1 0 0.2-0.1l1.7-0.2q0.1 0 0.2 0 0.1 0.1 0.1 0.2v1.3h1.1q0.1 0 0.1 0.1 0.1 0.1 0.1 0.2v1q0 0.1-0.1 0.2 0 0.1-0.1 0.1h-1.1v3.7q0 0.4 0 0.5 0.1 0.1 0.4 0.1h0.7q0.2 0 0.2 0.2v1q0 0.2-0.2 0.3z"/>
		</g>
	</g>
</svg>