<svg version="1.2" xmlns="http://www.w3.org/2000/svg" viewBox="0 0 91 35" width="91" height="35">
	<title>Vector Smart Object-ai</title>
	<style>
		.s0 { fill: #626366 } 
		.s1 { fill: #0480c5 } 
		.s2 { fill: #0cad57 } 
		.s3 { fill: #faaa18 } 
		.s4 { fill: #ee4931 } 
	</style>
	<g id="Layer 1">
		<g id="&lt;Group&gt;">
			<g id="&lt;Group&gt;">
				<g id="&lt;Group&gt;">
					<g id="&lt;Group&gt;">
						<g id="&lt;Group&gt;">
							<g id="&lt;Group&gt;">
								<g id="&lt;Group&gt;">
									<path id="&lt;Compound Path&gt;" fill-rule="evenodd" class="s0" d="m43.2 27.6h-3.3v-24.9h8.7q3.3 0 5.7 2.1 2.3 2.2 2.3 5.3 0 3.2-2.3 5.3-2.3 2.1-5.7 2.1h-5.4zm0-13.2h5.5q2 0 3.2-1.3 1.4-1.3 1.4-3 0-1.8-1.4-3.1-1.2-1.3-3.2-1.3h-5.5z"/>
								</g>
							</g>
							<g id="&lt;Group&gt;">
								<g id="&lt;Group&gt;">
									<path id="&lt;Compound Path&gt;" fill-rule="evenodd" class="s0" d="m64.2 10q3.7 0 5.8 1.9 2.1 1.9 2.1 5.2v10.5h-3.2v-2.4h-0.1q-2.1 3-5.4 3-2.9 0-4.9-1.7-1.9-1.7-1.9-4.2 0-2.6 2-4.2 2.1-1.6 5.5-1.6 2.9 0 4.8 1.1v-0.8q0-1.6-1.3-2.8-1.4-1.2-3.2-1.2-2.8 0-4.4 2.3l-2.9-1.8q2.4-3.3 7.1-3.3zm-4.2 12.4q0 1.2 1 2.1 1.1 0.8 2.6 0.8 2.1 0 3.7-1.5 1.6-1.5 1.6-3.5-1.5-1.2-4.3-1.2-2 0-3.3 1-1.3 0.9-1.3 2.3z"/>
								</g>
							</g>
							<g id="&lt;Group&gt;">
								<path id="&lt;Path&gt;" class="s0" d="m90.1 10.5l-10.9 24.6h-3.4l4-8.6-7.2-16h3.6l5.2 12.3h0.1l5.1-12.3z"/>
							</g>
						</g>
					</g>
				</g>
			</g>
			<g id="&lt;Group&gt;">
				<path id="&lt;Path&gt;" class="s1" d="m29.9 15.3q0-1.5-0.3-2.9h-13.9v5.5h8c-0.4 1.8-1.4 3.4-3 4.4v3.6h4.8c2.8-2.5 4.4-6.2 4.4-10.6z"/>
				<path id="&lt;Path&gt;" class="s2" d="m15.7 29.3c4 0 7.4-1.2 9.8-3.4l-4.8-3.6c-1.3 0.9-3 1.4-5 1.4-3.8 0-7.1-2.6-8.2-6h-4.9v3.7c2.4 4.7 7.4 7.9 13.1 7.9z"/>
				<path id="&lt;Path&gt;" class="s3" d="m7.5 17.7q-0.5-1.3-0.5-2.7 0-1.4 0.5-2.7v-3.7h-4.9c-1 1.9-1.6 4.1-1.6 6.4 0 2.3 0.6 4.5 1.6 6.4z"/>
				<path id="&lt;Path&gt;" class="s4" d="m15.7 6.3c2.2 0 4.1 0.8 5.7 2.2l4.2-4.1c-2.6-2.3-5.9-3.7-9.9-3.7-5.7 0-10.7 3.2-13.1 7.9l4.9 3.7c1.1-3.4 4.4-6 8.2-6z"/>
			</g>
		</g>
	</g>
</svg>