<svg version="1.2" xmlns="http://www.w3.org/2000/svg" viewBox="0 0 58 48" width="58" height="48">
	<title>Vector Smart Object-ai</title>
	<style>
		.s0 { fill: #fefefe } 
		.s1 { fill: #000000 } 
		.s2 { fill: #d12571 } 
	</style>
	<g id="Layer 1">
		<g id="&lt;Group&gt;">
			<path id="&lt;Path&gt;" class="s0" d="m0.9 0.4v47.3h29.2c19.2 0 27.5-10.2 27.5-23.7 0-13.4-8.3-23.6-27.5-23.6z"/>
			<path id="&lt;Compound Path&gt;" fill-rule="evenodd" class="s1" d="m30.1 3.9c20.8 0 23.9 12.6 23.9 20.1 0 13.1-8.5 20.3-23.9 20.3h-25.5v-40.4zm-23.5 1.9v36.6h23.5c14.2 0 21.9-6.3 21.9-18.4 0-12.4-8.4-18.2-21.9-18.2z"/>
			<path id="&lt;Path&gt;" class="s1" d="m17.3 26.7v12.7h-7.5v-12.7z"/>
			<path id="&lt;Path&gt;" class="s1" d="m13.5 24.8c-2.6 0-4.6-2-4.6-4.4 0-2.5 2-4.5 4.6-4.5 2.6 0 4.7 2 4.7 4.5 0 2.4-2.1 4.4-4.7 4.4z"/>
			<path id="&lt;Compound Path&gt;" fill-rule="evenodd" class="s2" d="m22.4 18.3c0.8 0 1.8 0.2 1.8 2 0 1.9-0.9 2.1-1.8 2.1h-1.3v-4.1zm20.9 6.2h5.5c-0.2 8.8-5 14.9-18.7 14.9h-9.1v-14.9h1.4c2.4 0 3.9-1.6 3.9-4.2 0-2.5-1.5-4.1-3.9-4.1h-1.4v-7.4h9.1c8.4 0 17.7 2.4 18.6 13.6h-3.2v-6.2h-2.2zm-7.1 0l0.5-1.5h2.8l0.5 1.5h2.3l-2.7-8.2h-3l-2.7 8.2zm1.9-5.9h0.1l0.7 2.3h-1.5zm-8.4 3.9v-1.1h2.9v-2h-2.9v-1h3.1v-2h-5.2v8.2h5.3v-2.1z"/>
		</g>
	</g>
</svg>