<svg version="1.2" xmlns="http://www.w3.org/2000/svg" viewBox="0 0 48 42" width="48" height="42">
	<title>Vector Smart Object-ai</title>
	<style>
		.s0 { fill: #fefefe } 
		.s1 { fill: #000000 } 
		.s2 { fill: #d12571 } 
	</style>
	<g id="Layer 1">
		<g id="&lt;Group&gt;">
			<path id="&lt;Path&gt;" class="s0" d="m0.8 0.4v41.4h24.1c15.9 0 22.8-9 22.8-20.8 0-11.7-6.9-20.6-22.8-20.6z"/>
			<path id="&lt;Compound Path&gt;" fill-rule="evenodd" class="s1" d="m24.9 3.4c17.2 0 19.8 11.1 19.8 17.6 0 11.4-7 17.7-19.8 17.7h-21.1v-35.3zm-19.4 1.7v32h19.4c11.7 0 18.1-5.5 18.1-16.1 0-10.8-6.9-15.9-18.1-15.9z"/>
			<path id="&lt;Path&gt;" class="s1" d="m8.1 23.4h6.2v11.1h-6.2z"/>
			<path id="&lt;Path&gt;" class="s1" d="m15.1 17.8c0 2.1-1.8 3.9-3.9 3.9-2.1 0-3.9-1.8-3.9-3.9 0-2.1 1.8-3.9 3.9-3.9 2.1 0 3.9 1.8 3.9 3.9z"/>
			<path id="&lt;Compound Path&gt;" fill-rule="evenodd" class="s2" d="m18.5 16c0.7 0 1.5 0.2 1.5 1.8 0 1.6-0.7 1.8-1.5 1.8h-1.1v-3.6zm17.4 5.4h4.5c-0.1 7.8-4.1 13.1-15.5 13.1h-7.5v-13.1h1.1c2.1 0 3.3-1.3 3.3-3.6 0-2.2-1.3-3.6-3.3-3.6h-1.1v-6.5h7.5c7 0 14.7 2.1 15.4 11.9h-2.6v-5.4h-1.8zm-5.9 0l0.4-1.4h2.3l0.4 1.4h1.9l-2.2-7.2h-2.5l-2.2 7.2zm1.5-5.2h0.1l0.6 2h-1.3zm-6.8 3.5v-1h2.3v-1.8h-2.3v-0.9h2.4v-1.7h-4.2v7.1h4.4v-1.7z"/>
		</g>
	</g>
</svg>