<svg version="1.2" xmlns="http://www.w3.org/2000/svg" viewBox="0 0 44 38" width="44" height="38">
	<title>Vector Smart Object-ai</title>
	<defs>
		<radialGradient id="g1" cx="0" cy="0" r="1" gradientUnits="userSpaceOnUse" gradientTransform="matrix(46.006,0,0,46.006,10.096,5.608)">
			<stop offset="0" stop-color="#00b7e2"/>
			<stop offset=".427" stop-color="#009eca"/>
			<stop offset="1" stop-color="#00667f"/>
		</radialGradient>
		<clipPath clipPathUnits="userSpaceOnUse" id="cp1">
			<path d="m24.69 19.2v-0.91c0 0-0.05-0.71-0.79-0.71h-1.15v1.62h-1.19v-4.67h2.88c0 0 1.5-0.19 1.5 1.36 0 0.81-0.66 1.09-0.66 1.09 0 0 0.57 0.27 0.57 1.06v1.16zm-1.94-2.72h1.22c0.36 0 0.65-0.2 0.65-0.44 0-0.25-0.29-0.45-0.65-0.45h-1.22z"/>
		</clipPath>
		<clipPath clipPathUnits="userSpaceOnUse" id="cp2">
			<path d="m38.68 19.2l-1.88-3.12v3.12h-2.32l-0.42-0.98h-2.17l-0.41 0.98h-1.86c0 0-1.59-0.23-1.59-2.21 0-2.59 1.81-2.49 1.87-2.5l1.46 0.04v1.05l-1.2 0.01c0 0-0.78 0-0.88 1.02q-0.01 0.18-0.01 0.33c0 1.58 1.37 1.09 1.41 1.07l1.47-3.48h1.66l1.78 4.23v-4.23h1.68l1.86 3.07v-3.07h1.19v4.67zm-6.28-2.18h1.15l-0.57-1.39z"/>
		</clipPath>
		<clipPath clipPathUnits="userSpaceOnUse" id="cp3">
			<path d="m15.39 19.2v-3.23l-1.49 3.23h-0.97l-1.5-3.21v3.21h-2.34l-0.41-0.98h-2.16l-0.42 0.98h-1.3l1.97-4.67h1.67l1.8 4.29v-4.29h1.87l1.31 2.9 1.3-2.9h1.87v4.67zm-8.36-2.18h1.15l-0.58-1.39z"/>
		</clipPath>
		<clipPath clipPathUnits="userSpaceOnUse" id="cp4">
			<path d="m17.25 19.2v-4.67h3.69v1.09h-2.5v0.72h2.44v1.06h-2.44v0.79h2.5v1.01z"/>
		</clipPath>
		<radialGradient id="g2" cx="0" cy="0" r="1" gradientUnits="userSpaceOnUse" gradientTransform="matrix(46.005,0,0,46.005,10.111,5.609)">
			<stop offset="0" stop-color="#00b7e2"/>
			<stop offset=".427" stop-color="#009eca"/>
			<stop offset="1" stop-color="#00667f"/>
		</radialGradient>
		<clipPath clipPathUnits="userSpaceOnUse" id="cp5">
			<path d="m26.43 19.21v-4.68h1.19v4.68z"/>
		</clipPath>
		<radialGradient id="g3" cx="0" cy="0" r="1" gradientUnits="userSpaceOnUse" gradientTransform="matrix(46.006,0,0,46.006,10.111,5.61)">
			<stop offset="0" stop-color="#00b7e2"/>
			<stop offset=".427" stop-color="#009eca"/>
			<stop offset="1" stop-color="#00667f"/>
		</radialGradient>
		<clipPath clipPathUnits="userSpaceOnUse" id="cp6">
			<path d="m29.27 27.12v-0.91c0 0-0.05-0.71-0.79-0.71h-1.16v1.62h-1.18v-4.67h2.88c0 0 1.5-0.18 1.5 1.36 0 0.81-0.67 1.1-0.67 1.1 0 0 0.57 0.26 0.57 1.05v1.16zm-1.94-2.72h1.22c0.36 0 0.65-0.2 0.65-0.44 0-0.25-0.29-0.45-0.65-0.45h-1.22z"/>
		</clipPath>
		<clipPath clipPathUnits="userSpaceOnUse" id="cp7">
			<path d="m20.33 27.11l-1.26-1.38-1.26 1.38h-4.41v-4.68h4.31l1.36 1.49 1.37-1.48h0.91v-0.01h2.88c0 0 1.5-0.16 1.5 1.38 0 1.37-0.5 1.8-2.03 1.8h-1.17v1.5zm-0.45-2.3l1.47 1.63v-3.25zm-5.28 1.29h2.49l1.17-1.29-1.17-1.28h-2.49v0.72h2.43v1.06h-2.43zm7.94-1.71h1.23c0.35 0 0.64-0.2 0.64-0.44 0-0.25-0.29-0.45-0.64-0.45h-1.23z"/>
		</clipPath>
		<clipPath clipPathUnits="userSpaceOnUse" id="cp8">
			<path d="m37.36 27.1h-2.11v-1.07h1.85c0 0 0.66 0.08 0.66-0.37 0-0.42-1-0.39-1-0.39 0 0-1.64 0.14-1.64-1.39 0-1.53 1.48-1.44 1.48-1.44h2.27v1.09h-1.83c0 0-0.63-0.13-0.63 0.33 0 0.39 0.86 0.33 0.86 0.33 0 0 1.81-0.13 1.81 1.28 0 1.51-1.17 1.64-1.58 1.64q-0.14 0-0.14-0.01z"/>
		</clipPath>
		<radialGradient id="g4" cx="0" cy="0" r="1" gradientUnits="userSpaceOnUse" gradientTransform="matrix(46.006,0,0,46.006,10.111,5.61)">
			<stop offset="0" stop-color="#00b7e2"/>
			<stop offset=".427" stop-color="#009eca"/>
			<stop offset="1" stop-color="#00667f"/>
		</radialGradient>
		<clipPath clipPathUnits="userSpaceOnUse" id="cp9">
			<path d="m31.01 27.11v-4.66h3.7v1.08h-2.51v0.72h2.44v1.06h-2.44v0.79h2.51v1.01z"/>
		</clipPath>
		<radialGradient id="g5" cx="0" cy="0" r="1" gradientUnits="userSpaceOnUse" gradientTransform="matrix(46.007,0,0,46.007,10.111,5.609)">
			<stop offset="0" stop-color="#00b7e2"/>
			<stop offset=".427" stop-color="#009eca"/>
			<stop offset="1" stop-color="#00667f"/>
		</radialGradient>
		<clipPath clipPathUnits="userSpaceOnUse" id="cp10">
			<path d="m41.54 27.1h-2.11v-1.07h1.84c0 0 0.67 0.08 0.67-0.37 0-0.42-1-0.39-1-0.39 0 0-1.64 0.14-1.64-1.39 0-1.53 1.48-1.44 1.48-1.44h2.27v1.09h-1.83c0 0-0.63-0.13-0.63 0.33 0 0.39 0.86 0.33 0.86 0.33 0 0 1.81-0.13 1.81 1.28 0 1.51-1.17 1.64-1.58 1.64q-0.14 0-0.14-0.01z"/>
		</clipPath>
		<radialGradient id="g6" cx="0" cy="0" r="1" gradientUnits="userSpaceOnUse" gradientTransform="matrix(46.005,0,0,46.005,10.111,5.61)">
			<stop offset="0" stop-color="#00b7e2"/>
			<stop offset=".427" stop-color="#009eca"/>
			<stop offset="1" stop-color="#00667f"/>
		</radialGradient>
	</defs>
	<style>
		.s0 { fill: #fefefe } 
		.s1 { fill: url(#g1) } 
		.s2 { fill: url(#g2) } 
		.s3 { fill: url(#g3) } 
		.s4 { fill: url(#g4) } 
		.s5 { fill: url(#g5) } 
		.s6 { fill: url(#g6) } 
		.s7 { fill: #00a4cf } 
	</style>
	<g id="Layer 1">
		<g id="&lt;Group&gt;">
			<path id="&lt;Path&gt;" class="s0" d="m43 37.7h-38.1v-37.3h38.1z"/>
			<path id="&lt;Path&gt;" class="s1" d="m41.7 28c0 0-0.1 0-0.2 0h-3v-0.2q-0.5 0.2-1 0.2c0 0-0.1 0-0.2 0h-1.7-4.3-2.9v-0.9c0 0 0-0.6 0-0.7 0 0-0.1 0-0.2 0 0 0.3 0 1.6 0 1.6h-3v-1.8c-0.4 0.2-1 0.3-1.5 0.3 0 0-0.2 0-0.3 0 0 0.3 0 1.5 0 1.5h-3.5c0 0-0.5-0.6-0.8-1-0.4 0.4-0.9 1-0.9 1h-5.7v-6.4h5.6c0 0 0.6 0.6 1 1 0.3-0.4 0.9-1 0.9-1h0.4 0.9 2.9c0.1-0.1 0.6-0.1 1 0.1v-0.1h3.8c0.1 0 0.6-0.1 1.1 0.2v-0.2h4.6 0.9v0.2c0.5-0.3 1-0.2 1-0.2h3.1v0.2c0.6-0.3 1-0.2 1.1-0.2h2.2v-21.2h-38.1v16.3l1.3-3.1h2.8c0 0 0.3 0.8 0.3 0.9 0-0.2 0-0.9 0-0.9h3.4c0 0 0.5 1.2 0.7 1.7 0.2-0.5 0.7-1.7 0.7-1.7h2.3 0.2 0.9 3.2 0.2 0.9 2.6c0.2 0 0.6 0 1.1 0.2v-0.2h2.1 0.9v0.4q0.6-0.4 1.4-0.4c0 0 1.6 0.1 1.7 0.1v-0.1h2.8c0 0 0.3 0.8 0.3 0.8 0-0.2 0-0.8 0-0.8h3c0 0 0.5 0.8 0.5 0.8 0-0.1 0-0.8 0-0.8h3v6.5h-3c0 0-0.5-0.8-0.5-0.9 0 0.1 0 0.9 0 0.9h-3.8c0 0-0.3-0.8-0.4-1-0.4 0-0.6 0-1 0-0.1 0.2-0.4 1-0.4 1h-2.6c-0.3-0.1-0.7-0.2-1-0.4v0.4h-2.1q0 0 0 0h-2.6v-0.9c0 0 0-0.6 0-0.7 0 0-0.1 0-0.2 0 0 0.3 0 1.6 0 1.6h-1.8-1.1-3.2-0.3-2.7c0 0 0-0.1 0-0.1 0 0-0.1 0.1-0.1 0.1h-2c0 0-0.1-0.1-0.1-0.1 0 0 0 0.1 0 0.1h-3.8c0 0-0.3-0.8-0.4-1-0.4 0-0.6 0-1 0-0.1 0.2-0.4 1-0.4 1h-1.8v17.6h38.1v-10.1c-0.4 0.3-0.9 0.4-1.3 0.4z"/>
			<g id="&lt;Group&gt;">
				<g id="&lt;Clip Group&gt;" clip-path="url(#cp1)">
				</g>
				<g id="&lt;Clip Group&gt;" clip-path="url(#cp2)">
				</g>
				<g id="&lt;Clip Group&gt;" clip-path="url(#cp3)">
				</g>
				<g id="&lt;Clip Group&gt;" clip-path="url(#cp4)">
					<path id="&lt;Path&gt;" class="s2" d="m17.2 19.2v-4.7h3.7v1.1h-2.5v0.7h2.5v1.1h-2.5v0.8h2.5v1z"/>
				</g>
				<g id="&lt;Clip Group&gt;" clip-path="url(#cp5)">
					<path id="&lt;Path&gt;" class="s3" d="m26.4 19.2v-4.7h1.2v4.7z"/>
				</g>
			</g>
			<g id="&lt;Group&gt;">
				<g id="&lt;Clip Group&gt;" clip-path="url(#cp6)">
				</g>
				<g id="&lt;Clip Group&gt;" clip-path="url(#cp7)">
				</g>
				<g id="&lt;Clip Group&gt;" clip-path="url(#cp8)">
					<path id="&lt;Path&gt;" class="s4" d="m37.4 27.1h-2.2v-1.1h1.9c0 0 0.7 0.1 0.7-0.3 0-0.5-1-0.4-1-0.4 0 0-1.7 0.1-1.7-1.4 0-1.5 1.5-1.5 1.5-1.5h2.3v1.1h-1.9c0 0-0.6-0.1-0.6 0.4 0 0.3 0.9 0.3 0.9 0.3 0 0 1.8-0.1 1.8 1.3 0 1.5-1.2 1.6-1.6 1.6q-0.1 0-0.1 0z"/>
				</g>
				<g id="&lt;Clip Group&gt;" clip-path="url(#cp9)">
					<path id="&lt;Path&gt;" class="s5" d="m31 27.1v-4.7h3.7v1.1h-2.5v0.7h2.4v1.1h-2.4v0.8h2.5v1z"/>
				</g>
				<g id="&lt;Clip Group&gt;" clip-path="url(#cp10)">
					<path id="&lt;Path&gt;" class="s6" d="m41.5 27.1h-2.1v-1.1h1.9c0 0 0.6 0.1 0.6-0.3 0-0.5-1-0.4-1-0.4 0 0-1.6 0.1-1.6-1.4 0-1.5 1.5-1.5 1.5-1.5h2.2v1.1h-1.8c0 0-0.6-0.1-0.6 0.4 0 0.3 0.9 0.3 0.9 0.3 0 0 1.8-0.1 1.8 1.3 0 1.5-1.2 1.6-1.6 1.6q-0.2 0-0.2 0z"/>
				</g>
			</g>
			<path id="&lt;Compound Path&gt;" fill-rule="evenodd" class="s7" d="m0.1 36c0-0.9 0.8-1.7 1.8-1.7 0.9 0 1.7 0.8 1.7 1.7 0 1-0.8 1.8-1.7 1.8-1 0-1.8-0.8-1.8-1.8zm0.3 0c0 0.9 0.6 1.5 1.5 1.5 0.8 0 1.5-0.6 1.5-1.5 0-0.8-0.7-1.5-1.5-1.5-0.9 0-1.5 0.7-1.5 1.5zm1.9 0.8c0-0.1 0-0.3 0-0.4 0-0.1-0.1-0.2-0.3-0.2h-0.5v0.6h-0.2v-1.6h0.7c0.3 0 0.6 0.1 0.6 0.5 0 0.2-0.1 0.3-0.2 0.3 0.1 0.1 0.1 0.1 0.1 0.3v0.3c0.1 0.1 0.1 0.1 0.1 0.1v0.1zm-0.7-0.9h0.4c0.2 0 0.3 0 0.3-0.2 0-0.2-0.1-0.2-0.2-0.2h-0.5z"/>
		</g>
	</g>
</svg>