<svg version="1.2" xmlns="http://www.w3.org/2000/svg" viewBox="0 0 35 34" width="35" height="34">
	<title>Vector Smart Object-ai</title>
	<style>
		.s0 { fill: #1b63ae } 
		.s1 { fill: #f9fafb } 
	</style>
	<g id="Layer 1">
		<g id="&lt;Group&gt;">
			<path id="&lt;Path&gt;" class="s0" d="m17.4 34.1q-3.1 0-6.1-0.5c-2.4-0.4-4.7-1.3-6.6-2.9-1.2-0.9-1.9-2.2-2.6-3.5-0.7-1.5-1.2-3.2-1.4-4.9-0.4-2.3-0.4-4.7-0.3-7.1 0.1-2.2 0.3-4.4 1-6.6 0.6-1.7 1.4-3.3 2.7-4.6 0.8-0.8 1.7-1.4 2.7-2 1.7-0.9 3.6-1.3 5.5-1.6q2.9-0.4 5.9-0.3c2.3 0 4.6 0.2 6.8 0.8 2 0.6 3.9 1.4 5.4 2.9 0.9 0.8 1.5 1.7 2 2.8 0.9 1.6 1.3 3.4 1.6 5.2 0.4 2.3 0.4 4.7 0.3 7.1-0.1 2.3-0.3 4.5-1 6.7-0.6 1.6-1.4 3.1-2.5 4.4-0.8 0.8-1.7 1.5-2.7 2-1.6 0.9-3.4 1.4-5.3 1.7q-2.7 0.4-5.4 0.4z"/>
			<path id="&lt;Path&gt;" class="s1" d="m5.5 18.7q0-1.9 0-3.8c0-1.1 0.8-1.8 1.9-1.8q1 0 2.1 0c1.9 0 3.6 1.5 3.8 3.5 0.2 2.1-1.3 3.9-3.3 4.1-0.4 0-0.7 0-1.1 0q-0.2 0.1-0.2-0.1 0.1-0.6 0-1.1c0-0.2 0.1-0.2 0.2-0.2 0.4 0 0.8 0 1.2-0.1 1.1-0.3 1.8-1.3 1.7-2.4-0.1-1.2-1.1-2.2-2.3-2.2q-1 0-2.1 0c-0.3 0-0.4 0-0.4 0.4q0 3.8 0 7.7c0 0.2 0 0.3-0.3 0.3q-0.5 0-1 0c-0.1 0-0.2-0.1-0.2-0.2q0-2 0-4.1z"/>
			<path id="&lt;Path&gt;" class="s1" d="m21.8 18.7q0 0.9 0 1.8c0 0.2-0.1 0.3-0.3 0.3q-0.4-0.1-0.9 0c-0.2 0-0.3-0.1-0.3-0.3q0-1.7 0-3.4c0-1.3-1-2.4-2.3-2.5-1.2-0.1-2.3 0.8-2.6 2-0.2 1.2 0.6 2.4 1.8 2.6 0.3 0.1 0.6 0.1 1 0.1 0.1 0 0.2 0 0.1 0.2q0 0.5 0 1.1c0 0 0 0.1-0.1 0.1-1.2 0.1-2.3-0.2-3.2-1-1.4-1.3-1.5-3.6-0.2-5.1 1-1.3 2.4-1.8 4-1.3 1.6 0.4 2.7 1.5 2.9 3.2 0.2 0.7 0.1 2.2 0.1 2.2z"/>
			<path id="&lt;Path&gt;" class="s1" d="m23.8 23.2q0.2-0.4 0.4-0.7 2.2-4.5 4.3-8.9c0.1-0.2 0.2-0.3 0.4-0.2q0.6 0 1.2 0c0.2 0 0.2 0 0.1 0.2q-1.4 2.8-2.8 5.7-0.9 1.9-1.8 3.7c-0.1 0.2-0.2 0.2-0.3 0.2q-0.7 0-1.5 0z"/>
			<path id="&lt;Path&gt;" class="s1" d="m24.8 19q-0.5-1-0.9-1.9-0.9-1.8-1.8-3.5c-0.1-0.2 0-0.2 0.2-0.2q0.6 0 1.2 0c0.1 0 0.2 0 0.3 0.1q0.9 1.9 1.7 3.7c0.1 0.1 0.1 0.2 0.1 0.2q-0.4 0.8-0.8 1.6z"/>
		</g>
	</g>
</svg>