<svg version="1.2" xmlns="http://www.w3.org/2000/svg" viewBox="0 0 539 679" width="539" height="679">
	<title>Vector Smart Object-ai</title>
	<style>
		.s0 { fill: #515151 } 
		.s1 { fill: #048ef8 } 
	</style>
	<g id="Layer 1">
		<g id="&lt;Group&gt;">
			<path id="&lt;Path&gt;" class="s0" d="m493.4 28l-14.6 22.4c19.8 12.8 32.8 35 32.8 60.2v469.8c0 39.4-32.2 71.6-71.6 71.6h-337.8c-39.4 0-71.6-32.2-71.6-71.6v-65.6h-26.8v65.6c0 54.2 44.4 98.4 98.4 98.4h337.8c54.2 0 98.4-44.4 98.4-98.4v-469.8c0-34.6-18-65-45-82.6z"/>
			<g id="&lt;Group&gt;">
				<path id="&lt;Path&gt;" class="s1" d="m104.2 333.4h-63.6c-13.4 0-23.6 3.2-30.2 9.6-6.6 6.4-10 15.4-10 26.6 0 15 5.2 26.8 15.8 35.4-10.6 5.6-15.8 15-15.8 28.2q0 11.4 4.2 19.8c2.8 5.6 6.6 10.4 11.8 15l-8.2 1c-1.6 0.2-2.6 0.6-3.2 1.4-0.6 0.8-1 2.2-1 4v17c0 2.8 0.4 4.6 1.4 5.6 1 1 2.6 1.4 5.2 1.4h93.8c3.4 0 5.8-0.8 7.4-2.4 1.6-1.6 2.4-4.4 2.4-8.2v-14.2c0-3.8-0.8-6.6-2.4-8-1.6-1.6-4-2.2-7.4-2.2h-58.8c-5.6 0-10.2-1.6-13.6-5-3.4-3.2-5.2-7.6-5.2-12.8 0-4.2 1.2-7.4 3.8-9.6 2.6-2 6.4-3.2 11.6-3.2h62.2c3.4 0 5.8-0.8 7.4-2.4 1.6-1.6 2.4-4.4 2.4-8.2v-13c0-3.6-0.8-6.4-2.4-8-1.6-1.6-4-2.4-7.4-2.4h-59.2c-5.6 0-10-1.6-13.4-4.8-3.4-3.2-5-7.2-5-12.2 0-4.4 1.2-7.8 3.8-10 2.6-2.2 6.8-3.4 12.6-3.4h61.4c3.4 0 5.8-0.8 7.4-2.2 1.6-1.6 2.4-4.2 2.4-8v-14.4c0-3.6-0.8-6.4-2.4-8-1.6-1.6-4.4-2.4-7.8-2.4z"/>
				<path id="&lt;Path&gt;" class="s1" d="m145 266.8c-3.2-5.6-8-10.6-14.6-15q-9.9-6.6-27.6-15l-91.4-43c-1.2-0.6-2.4-1-3.6-1-2.6 0-4 1.4-4 4.2v26.6q0 3.3 1.2 4.8c0.8 1 2 2 4 2.8l62.2 25.2-62.2 25.2c-1.8 0.8-3.2 1.6-4 2.8q-1.2 1.5-1.2 4.8v26.6c0 2.8 1.4 4.2 4 4.2 1.2 0 2.4-0.4 3.6-1l96.4-45.4c5.4 2 9.2 4 11.6 6.4 2.4 2.2 3.6 5.4 3.6 9.4 0 3-0.4 5.8-1.2 8-0.8 2.2-2.2 4.6-3.8 7.2-1 1.4-1.4 2.6-1.4 3.6 0 1.2 0.8 2.2 2.6 3.2l13.6 7.8c1.6 0.8 2.6 1.2 3.4 1.2 1.2 0 2.4-0.6 3.4-2 6.8-8.2 10.4-18.4 10.4-31-0.2-8.2-1.8-15-5-20.6z"/>
			</g>
			<path id="&lt;Compound Path&gt;" fill-rule="evenodd" class="s0" d="m182.2 155.2c-15-15.6-22.4-37.4-22.4-65.6 0-28.2 7.4-50 22.4-65.6 15-15.6 36.6-23.2 65-23.2 28.2 0 49.8 7.8 64.8 23.2 15 15.6 22.4 37.4 22.4 65.6 0 28.2-7.4 50-22.4 65.6-15 15.6-36.6 23.2-64.8 23.2-28.4 0-50-7.6-65-23.2zm99.4-21.4c7.8-10 11.6-24.6 11.6-44.2 0-19.6-3.8-34.2-11.6-44.2-7.8-10-19.2-14.8-34.4-14.8-15.4 0-27 5-34.6 14.8-7.8 10-11.6 24.6-11.6 44.2 0 19.6 3.8 34.2 11.6 44.2 7.8 10 19.4 14.8 34.6 14.8 15.2 0 26.6-4.8 34.4-14.8z"/>
			<path id="&lt;Path&gt;" class="s0" d="m379.8 174.4c-12-2.8-21.6-6.6-29-11.6-2.6-1.8-3.8-3.6-3.8-5q0-1.5 1.2-3.6l10.2-16.2c1-1.6 2-2.6 3.2-2.6 1 0 2.2 0.6 3.8 1.6 6.2 3.6 13.2 6.4 21.2 8.6 8 2.2 16.2 3.2 24.2 3.2 9.6 0 16.8-1.6 21.6-4.6 4.6-3 7-8 7-14.6 0-4.6-1.2-8.2-3.4-11-2.2-2.8-5.6-5.4-10-7.6-4.4-2.2-11.2-5-20.4-8.6-10.6-4-19.8-8-27.2-12.2-7.4-4.2-13.6-9.6-18.2-16.2-4.8-6.6-7.2-14.6-7.2-24.2 0-15.8 5.8-28 17.2-36.4 11.6-8.4 26.6-12.6 45.6-12.6 24.8 0 43.8 4.6 57 14 2.6 2 3.8 3.6 3.8 5q0 1.5-1.2 3.6l-10.2 16.2c-1 1.6-2 2.6-3.2 2.6-1 0-2.2-0.6-3.8-1.6-10.2-6.6-22.6-10-37-10-18 0-27 6.6-27 19.6 0 4.4 1 7.8 3.2 10.6 2 2.8 5 5 8.6 7 3.6 2 9.4 4.4 17.2 7.4l7 2.8c12.2 4.8 21.8 9.4 28.8 13.6q10.5 6.3 16.2 15.6c3.8 6.2 5.6 14.2 5.6 23.8 0 14.6-5.4 26-16.4 34.6-11 8.6-26.8 12.8-47.4 12.8-12.8 0-25.2-1.4-37.2-4z"/>
			<path id="&lt;Compound Path&gt;" fill-rule="evenodd" class="s0" d="m3.8 177v-161.6c0-3.6 0.8-6.4 2.6-8.2 1.8-1.8 4.6-2.8 8.6-2.8h62.6c43 0 64.4 19.2 64.4 57.6 0 38.2-21.6 57.4-64.4 57.4h-32.6v74.6l-34.6-16.2c-1.6-0.8-3-1.2-4.6-1.2-0.8 0-1.4 0.2-2 0.4zm41.4-88h29.6c17.4 0 26-9 26-27 0-18-8.6-27-26-27h-29.6z"/>
		</g>
	</g>
</svg>