<svg version="1.2" xmlns="http://www.w3.org/2000/svg" viewBox="0 0 59 38" width="59" height="38">
	<title>Vector Smart Object-ai</title>
	<style>
		.s0 { fill: #dd222b } 
		.s1 { fill: #184681 } 
		.s2 { fill: #0e7a8b } 
		.s3 { fill: #fefefe } 
	</style>
	<g id="Layer 1">
		<g id="&lt;Group&gt;">
			<path id="&lt;Path&gt;" class="s0" d="m0.7 34.2c-0.4 2 0.8 3.6 2.8 3.6h15c2 0 3.9-1.6 4.4-3.6l6.9-30.3c0.5-2-0.8-3.5-2.7-3.5h-15.1c-1.9 0-3.9 1.5-4.3 3.5z"/>
			<path id="&lt;Path&gt;" class="s1" d="m13.9 34.2c-0.5 2 0.8 3.6 2.7 3.6h15.1c1.9 0 3.9-1.6 4.3-3.6l7-30.3c0.4-2-0.8-3.5-2.8-3.5h-15c-2 0-3.9 1.5-4.4 3.5z"/>
			<path id="&lt;Path&gt;" class="s2" d="m29.9 34.2c-0.5 2 0.8 3.6 2.7 3.6h15.1c1.9 0 3.9-1.6 4.3-3.6l7-30.3c0.4-2-0.8-3.5-2.8-3.5h-15c-2 0-3.9 1.5-4.4 3.5z"/>
			<path id="&lt;Compound Path&gt;" fill-rule="evenodd" class="s3" d="m39.4 22.4q-0.1 0-0.3 0 0.1-0.3 0.2-0.6 0-0.3 0.1-0.5c0-0.1 0.1-0.1 0.1-0.1q0.8 0 1.7 0 0 0 0 0 0 0.2 0 0.4 0.2-0.1 0.4-0.2 0.7-0.2 1.4-0.2 0.8 0 1.6 0 0.1 0 0.2 0 0 0.1 0 0.1-0.1 0.5-0.3 1 0 0.2-0.2 0.1-0.1 0-0.2 0.2-0.8 2.7-1.5 5.4 0 0.1-0.1 0.1 0.2 0.1 0.4 0.1-0.1 0-0.1 0.1-0.1 0.4-0.2 0.9-0.1 0.1-0.2 0.1c-0.2 0-0.2 0-0.3 0.2 0 0.3 0 0.3-0.4 0.3h-1.4q0.1-0.2 0.2-0.5h-3.3q0-0.1 0-0.1 0.1-0.5 0.2-0.9c0.1-0.2 0.1-0.2 0.2-0.1 0.2 0 0.2-0.1 0.3-0.2q0.7-2.8 1.5-5.5 0 0 0-0.1zm2.9 0q-0.6 0-1.2 0c-0.1 0-0.1 0.1-0.1 0.1q-0.1 0.2-0.1 0.4-0.2 0.5-0.3 1 0 0 0.1 0 0.6-0.1 1.2-0.3c0 0 0.1-0.1 0.1-0.1q0.1-0.5 0.2-0.9 0 0 0.1-0.2zm-0.7 2.3q-0.6 0-1.2 0c0 0-0.1 0.1-0.1 0.1q-0.2 0.7-0.4 1.5 0.1 0 0.1 0 0.6-0.3 1.2-0.4 0.1 0 0.1-0.1 0.2-0.5 0.3-1.1zm-2.2 3.5q0.6 0 1.2-0.1c0 0 0.1 0 0.1-0.1q0.1-0.4 0.2-0.8 0-0.1 0.1-0.2-0.6 0-1.1 0c-0.2 0-0.2-0.1-0.3 0.2q-0.1 0.5-0.2 1z"/>
			<path id="&lt;Path&gt;" class="s3" d="m10.7 10q0 0.4-0.1 0.8-0.6 2.5-1.1 5 0 0.4 0.1 0.8c0 0.4 0.4 0.7 1 0.7 0.6 0.1 1.2 0 1.6-0.4 0.4-0.4 0.6-0.8 0.7-1.3q0.6-2.7 1.1-5.5c0.1-0.1 0.1-0.2 0.2-0.1q0.8 0 1.6 0 0 0 0.1 0 0 0 0 0.1-0.6 2.9-1.2 5.8c-0.4 1.6-1.4 2.6-3 2.9-0.8 0.2-1.6 0.2-2.4 0-0.8-0.3-1.4-0.7-1.6-1.6-0.2-0.5-0.1-1 0-1.5q0.6-2.8 1.2-5.6c0-0.1 0-0.2 0.2-0.2q0.7 0.1 1.5 0.1z"/>
			<path id="&lt;Compound Path&gt;" fill-rule="evenodd" class="s3" d="m33 21.2q0 0.2-0.1 0.5 0.3-0.1 0.5-0.2 0.7-0.4 1.4-0.4 1.2 0 2.5 0 0.1 0 0.2 0-0.1 0.1-0.1 0.2-0.5 1.9-1 3.8c-0.1 0.5-0.4 0.6-0.8 0.7q-0.2 0-0.4 0-1.6 0.1-3.1 0c-0.2 0-0.2 0.1-0.2 0.2q-0.4 1.3-0.8 2.6c0 0.2 0 0.3 0.3 0.3h0.6q-0.1 0.4-0.3 0.8c0 0 0 0.1-0.1 0.1q-0.9 0-1.8-0.1-0.2 0-0.3 0-0.3-0.2-0.2-0.5 0.2-1 0.5-1.9 0.8-3 1.6-6c0-0.1 0.1-0.2 0.2-0.2q0.6 0.1 1.2 0 0.1 0 0.2 0.1zm2.4 1.1q0 0-0.1 0-1.1 0-2.3 0-0.1 0-0.2 0.1-0.1 0.4-0.2 0.8 0 0.1 0 0.1 0 0 0.1 0 0.5-0.3 1.1-0.3 0.7 0.1 1.3 0c0 0 0.1 0 0.1 0q0.1-0.3 0.2-0.7zm-3.2 2.5h0.2q1.1 0 2.2 0c0 0 0.1-0.1 0.2-0.1q0.1-0.3 0.2-0.7-1.3 0-2.5 0-0.1 0-0.1 0.1-0.1 0.3-0.2 0.7z"/>
			<path id="&lt;Compound Path&gt;" fill-rule="evenodd" class="s3" d="m35.9 18.7q0.1-0.5 0.2-1 0.6-2.9 1.2-5.8 0.1-0.8 0.3-1.5 0-0.1 0.1-0.1 2 0 3.9 0 0.6 0 1.2 0.3 0.8 0.4 0.8 1.3c0.1 0.9-0.1 1.8-0.7 2.5-0.6 0.8-1.4 1.2-2.3 1.3-0.7 0-1.5 0-2.2 0-0.1 0-0.2 0-0.2 0.2q-0.3 1.3-0.5 2.7 0 0.2-0.2 0.2-0.7-0.1-1.5 0-0.1 0-0.1-0.1zm2.7-4.5q0 0 0.1 0 0.8 0 1.7 0c0.4 0 0.7-0.1 1-0.4 0.3-0.4 0.4-0.8 0.4-1.3q0-0.4-0.4-0.6-0.3-0.1-0.6-0.1-0.8-0.1-1.6-0.1-0.1 0-0.1 0.2-0.2 0.5-0.3 1.1-0.1 0.6-0.2 1.2z"/>
			<path id="&lt;Path&gt;" class="s3" d="m45.1 26.6h-1.6q0.1-0.6 0.3-1.1c0 0 0.1-0.1 0.1-0.1q0.8 0 1.6 0c0.1 0.1 0.2 0 0.2-0.1q0.1-0.4 0.2-0.9h-1.8q0-0.1 0-0.1 0.2-0.4 0.3-0.9 0-0.1 0.1-0.1 2.6 0 5.1 0 0.1 0 0.2 0-0.1 0.1-0.1 0.2-0.1 0.4-0.2 0.8 0 0.2-0.2 0.1-0.7 0-1.4 0-0.2 0-0.2 0.2-0.1 0.4-0.2 0.8h1.7q-0.1 0.2-0.1 0.3-0.1 0.4-0.2 0.7-0.1 0.2-0.2 0.2-0.8 0-1.6 0-0.2 0-0.2 0.1-0.2 0.2-0.4 0.5c0.3 0 0.5 0 0.8 0q0.2 0 0.2 0.2 0.1 0.5 0.2 1.1 0 0.2 0.2 0.2 0.2 0 0.4 0 0 0 0 0.1-0.2 0.4-0.3 0.9 0 0.1-0.1 0.1-0.6 0-1.1 0c-0.3 0-0.6-0.2-0.7-0.6 0-0.4-0.1-0.7-0.2-1.1q-0.5 0.6-0.8 1.2-0.4 0.5-0.9 0.5-0.7 0-1.4 0h-0.2q0-0.2 0.1-0.4 0.1-0.3 0.1-0.6 0.1-0.1 0.2-0.1 0.2 0 0.4 0 0.3 0 0.5-0.2 0.6-1 1.2-1.9 0 0 0 0z"/>
			<path id="&lt;Path&gt;" class="s3" d="m49.6 13.5h1.8q0 0.9 0 1.7 0.1 0.9 0 1.7 0.1 0 0.1 0 0.2-0.5 0.5-1 0.4-1.1 0.9-2.2 0.1-0.2 0.3-0.2 0.5 0 1.1 0 0.1 0 0.2 0 0 0.1 0 0.2-1.6 3.2-3.2 6.4c-0.4 0.8-0.8 1.5-1.5 2.1q-0.7 0.6-1.7 0.7-0.2 0-0.5 0 0.1-0.3 0.1-0.6 0-0.1 0-0.2 0.1-0.1 0.1-0.1c0.6-0.2 1-0.6 1.3-1 0.4-0.6 0.7-1.2 0.9-1.8 0.1-0.2 0-0.4 0-0.6q0-0.6-0.1-1.3-0.1-0.8-0.1-1.6-0.1-0.8-0.2-1.6 0-0.3 0-0.6z"/>
			<path id="&lt;Compound Path&gt;" fill-rule="evenodd" class="s3" d="m46.6 14.3q0.1-0.1 0.2-0.2 0.3-0.2 0.7-0.2 0.5 0 0.9-0.1 0.1 0 0.2 0-0.1 0.6-0.2 1.1-0.4 1.8-0.8 3.7c-0.1 0.1-0.1 0.2-0.2 0.2q-0.7-0.1-1.4-0.1-0.1 0-0.2-0.1-0.1-0.1-0.2-0.1-0.5 0.1-1 0.2-0.4 0.2-0.8 0c-0.6-0.1-0.9-0.5-1-1-0.1-0.7 0-1.3 0.2-2q0.2-0.6 0.6-1.1c0.4-0.5 0.8-0.7 1.4-0.8 0.5-0.1 0.9 0.1 1.3 0.3q0.1 0.1 0.3 0.2zm-0.3 1.5c0-0.1 0-0.4-0.1-0.6-0.2-0.2-0.4-0.3-0.7-0.2q-0.2 0.1-0.3 0.2c-0.6 0.4-0.8 1-0.8 1.7q0 0.3 0.2 0.6 0.2 0.4 0.6 0.3 0.4-0.1 0.6-0.4c0.3-0.4 0.5-0.9 0.5-1.6z"/>
			<path id="&lt;Path&gt;" class="s3" d="m29 28.8q-0.1 0.5-0.2 0.9c-0.1 0.1-0.1 0.1-0.1 0.1q-1.4 0-2.8 0c-0.4 0-0.6-0.3-0.6-0.7q0.2-0.7 0.4-1.3 0.1-0.4 0.2-0.9h-1.1q0-0.2 0.1-0.5 0.1-0.2 0.1-0.4 0.1-0.1 0.2-0.1 0.4 0 0.9 0c0 0 0.1-0.1 0.1-0.1q0.2-0.5 0.3-1h-1.1q0 0 0-0.1 0.1-0.4 0.2-0.8 0.1-0.1 0.2-0.1 0.1 0 0.1 0h4.2 0.2q-0.1 0.1-0.1 0.2-0.1 0.3-0.2 0.7c0 0.1 0 0.2-0.2 0.1q-0.7 0-1.5 0c-0.1 0-0.2 0.1-0.2 0.2q-0.1 0.4-0.2 0.9h1.7q0 0 0 0.1-0.1 0.4-0.2 0.8 0 0.2-0.2 0.2-0.7 0-1.5-0.1c-0.1 0-0.1 0.1-0.2 0.2q-0.2 0.7-0.3 1.4c-0.1 0.2 0 0.3 0.2 0.3q0.7 0 1.3 0z"/>
			<path id="&lt;Compound Path&gt;" fill-rule="evenodd" class="s3" d="m26.6 18.9c-0.4 0-0.8-0.1-1.1-0.3-0.7-0.3-1-0.9-1-1.7q0-1.2 0.7-2.2c0.8-1.2 2.2-1.5 3.3-1.2 0.7 0.2 1.2 0.9 1.3 1.6 0 1.1-0.3 2.1-1.1 2.9q-0.8 0.9-2.1 0.9zm-0.7-2.2q0 0.1 0 0.2c0 0.4 0.3 0.7 0.8 0.8 0.5 0.1 1-0.2 1.3-0.7q0.4-0.7 0.4-1.6c0-0.4-0.3-0.8-0.7-0.8-0.5-0.1-0.9 0-1.2 0.4-0.4 0.5-0.6 1.1-0.6 1.7z"/>
			<path id="&lt;Path&gt;" class="s3" d="m31.5 18.7h-1.3q0.1-0.6 0.2-1.2 0.4-1.9 0.8-3.9 0-0.1 0.1-0.1 0.6 0 1.2 0-0.1 0.3-0.1 0.7 0 0 0 0 0.1-0.1 0.1-0.1c0.6-0.7 1.4-0.9 2.2-0.6 0.4 0.1 0.8 0.5 0.8 0.9 0.1 0.4 0 0.8-0.1 1.2q-0.3 1.5-0.6 3c0 0.1-0.1 0.2-0.2 0.2q-0.5 0-1 0-0.1 0-0.2-0.1 0.1-0.3 0.1-0.7l0.6-2.6q0-0.1 0-0.1 0.1-0.8-0.7-0.8c-0.6 0.1-1.1 0.5-1.3 1.1q-0.3 1.5-0.6 3 0 0 0 0.1z"/>
			<path id="&lt;Path&gt;" class="s3" d="m17.7 13.5q-0.1 0.4-0.2 0.7 0.1-0.1 0.2-0.1 0.9-1 2.1-0.6c0.5 0.1 0.9 0.5 0.9 1.1-0.1 0.4-0.1 0.8-0.2 1.3q-0.3 1.3-0.6 2.7 0 0.1 0 0.1h-1.3q0-0.3 0.1-0.7 0.3-1.3 0.5-2.5 0-0.3 0-0.5 0-0.4-0.4-0.4c-0.7-0.1-1.2 0.2-1.4 0.8-0.2 0.3-0.2 0.7-0.3 1q-0.2 1.1-0.4 2.2c0 0.1 0 0.1-0.1 0.1q-0.6 0-1.3 0 0.1-0.3 0.2-0.6 0.4-2.2 0.8-4.4c0-0.2 0.1-0.2 0.3-0.2q0.5 0 1.1 0z"/>
			<path id="&lt;Path&gt;" class="s3" d="m35.4 28.9q-0.1 0.4-0.2 0.8c0 0.1-0.1 0.1-0.1 0.1q-0.9 0-1.9 0c-0.3 0-0.6-0.3-0.6-0.6q0.1-0.7 0.1-1.4 0-0.8 0-1.5c0-0.2 0-0.2 0.2-0.2h1.2 0.2q0 0.3-0.1 0.6 0.3 0 0.5 0 0.2 0 0.2-0.2c0.1-0.4 0.1-0.4 0.6-0.4h0.8c-0.1 0.4-0.2 0.7-0.3 0.9-0.2 0.4-0.5 0.5-0.9 0.5q-0.3 0.1-0.7 0.1c-0.1 0-0.2 0-0.2 0.1q0 0.5 0 0.9c0 0.2 0.1 0.2 0.2 0.3q0.2 0 0.4 0 0.3 0 0.6 0z"/>
			<path id="&lt;Path&gt;" class="s3" d="m23.8 13.5q-0.1 0.4-0.1 0.8-0.5 2.2-1 4.3c0 0.1 0 0.2-0.1 0.2q-0.6-0.1-1.2-0.1-0.1 0-0.2 0 0.2-0.6 0.3-1.2 0.4-1.9 0.8-3.8c0.1-0.1 0.1-0.2 0.2-0.2q0.7 0 1.3 0z"/>
			<path id="&lt;Path&gt;" class="s3" d="m25.7 23.4q0.1-0.5 0.3-1 0 0 0.1 0 0 0 0.1 0 0.3 0 0.5-0.3 0.3-0.4 0.6-0.8c0-0.1 0.1-0.1 0.1-0.1q0.8 0 1.6 0 0 0 0.1 0-0.2 0.3-0.4 0.6h2.1q-0.1 0.5-0.2 0.9c-0.1 0.1-0.1 0.1-0.2 0.1q-1.1 0-2.2 0-0.1 0-0.2 0.1-0.4 0.5-1 0.5-0.7 0-1.3 0z"/>
			<path id="&lt;Path&gt;" class="s3" d="m44.9 21.1q0.8 0 1.6 0c0.1 0 0.1 0.1 0.1 0.1q0 0.3 0 0.6 0.1 0.1 0.2 0.1 0.2 0 0.4 0 0 0.1 0 0.2-0.2 0.4-0.3 0.8 0 0.1-0.1 0.1-0.6 0-1.3 0-0.5 0-0.5-0.5-0.1-0.7-0.1-1.4z"/>
			<path id="&lt;Path&gt;" class="s3" d="m22.6 12.9q0-0.4 0.1-0.8 0.1-0.2 0.1-0.4c0 0 0.1-0.1 0.1-0.1q0.7 0 1.3 0 0 0 0.1 0-0.1 0.4-0.2 0.8 0 0.2-0.1 0.4c0 0 0 0.1-0.1 0.1q-0.6 0-1.3 0 0 0 0 0z"/>
		</g>
	</g>
</svg>