<svg version="1.2" xmlns="http://www.w3.org/2000/svg" viewBox="0 0 1002 446" width="1002" height="446">
	<title>Visa_Electron_logo-svg</title>
	<defs>
		<clipPath clipPathUnits="userSpaceOnUse" id="cp1">
			<path d="m-1435-2340.11h3907.65v5056.96h-3907.65z"/>
		</clipPath>
	</defs>
	<style>
		.s0 { fill: #1a1f71 } 
	</style>
	<g id="layer1">
		<g id="g4153">
			<g id="Clip-Path: g4155" clip-path="url(#cp1)">
				<g id="g4155">
					<g id="g4161">
						<path id="path4163" fill-rule="evenodd" class="s0" d="m496.1 5.7l-66.8 312.3h-80.8l66.8-312.3zm420.4 265.7h-103.7l-16.8 46.6h-84.9l121.3-289.4c5.8-13.9 18.8-22.9 34.4-22.9h68.9l65.3 312.3h-74.7zm-13.4-64l-24.5-117.3-42.5 117.3zm-328.5 115.6c-36.1-0.4-70.9-7.9-89.8-16.6l14.7-68.4c18.7 8.7 42.3 20.3 82.9 19.7 23.2-0.4 48.2-9.6 48.4-30.6 0.1-13.7-10.4-23.5-41.9-38.8-30.6-15-71.3-40-70.7-85 0.4-60.8 56.6-103.2 136.5-103.2 31.1 0 56.1 6.7 75.6 13.8l-14.2 66.2c-36.2-16.6-68.1-15.5-79.7-14-23.3 3.1-34 15-34.3 26.2-0.7 36.8 113.6 41.4 113.2 123.8-0.2 65-55.8 106.9-140.7 106.9zm-193.9-317.2l-131 312.3h-85.4l-64.4-249.3c-3.9-15.3-7.3-20.9-19.2-27.4-19.4-10.6-51.5-20.4-79.7-26.6l1.9-9h137.5c17.5 0 33.3 11.6 37.3 31.8l34 180.7 84.1-212.5z"/>
					</g>
					<g id="g4165">
						<path id="path4167" class="s0" d="m599.6 404h-32.9v30.6h36.8v9.2h-47.8v-84.8h45.9v9.2h-34.9v26.8h32.9z"/>
					</g>
					<path id="path4169" class="s0" d="m620.4 354.5h11.1v89.3h-11.1z"/>
					<g id="g4171">
						<path id="path4173" fill-rule="evenodd" class="s0" d="m659.4 415.3c0.2 15 9.7 21.2 20.9 21.2 7.9 0 12.8-1.4 16.8-3.2l2 7.9c-3.9 1.8-10.6 3.9-20.3 3.9-18.8 0-30-12.4-30-30.8 0-18.3 10.8-32.7 28.6-32.7 20 0 25.1 17.4 25.1 28.6 0 2.2-0.1 3.9-0.3 5.1zm32.4-7.9c0.1-6.9-2.9-17.9-15.3-17.9-11.4 0-16.1 10.2-17 17.9z"/>
					</g>
					<g id="g4175">
						<path id="path4177" class="s0" d="m762.8 441.6c-2.9 1.4-9.3 3.5-17.5 3.5-18.4 0-30.3-12.4-30.3-31 0-18.8 12.8-32.5 32.7-32.5 6.5 0 12.3 1.7 15.3 3.3l-2.5 8.4c-2.6-1.4-6.8-2.9-12.8-2.9-14 0-21.5 10.5-21.5 23 0 14.1 9 22.8 21.1 22.8 6.3 0 10.4-1.5 13.6-2.9z"/>
					</g>
					<g id="g4179">
						<path id="path4181" class="s0" d="m793.8 368.3v14.6h15.9v8.4h-15.9v32.8c0 7.6 2.1 11.9 8.3 11.9 3 0 4.8-0.3 6.4-0.8l0.5 8.4c-2.1 0.8-5.5 1.5-9.8 1.5-5.1 0-9.3-1.7-11.9-4.6-3-3.4-4.3-8.8-4.3-16v-33.2h-9.4v-8.4h9.4v-11.3z"/>
					</g>
					<g id="g4183">
						<path id="path4185" class="s0" d="m825.1 401.9c0-7.2-0.1-13.4-0.5-19h9.7l0.5 12.1h0.4c2.7-8.2 9.5-13.4 16.9-13.4 1.2 0 2.1 0.1 3.1 0.3v10.4c-1.2-0.2-2.3-0.2-3.8-0.2-7.8 0-13.3 5.7-14.8 14.1-0.3 1.5-0.4 3.3-0.4 5.1v32.5h-11.1z"/>
					</g>
					<g id="g4187">
						<path id="path4189" fill-rule="evenodd" class="s0" d="m923.2 412.8c0 22.5-15.7 32.3-30.3 32.3-16.4 0-29.2-12-29.2-31.3 0-20.2 13.5-32.2 30.2-32.2 17.5 0 29.3 12.7 29.3 31.2zm-48.2 0.6c0 13.4 7.6 23.4 18.4 23.4 10.6 0 18.5-9.9 18.5-23.6 0-10.3-5.2-23.3-18.3-23.3-12.9 0-18.6 12.1-18.6 23.5z"/>
					</g>
					<g id="g4191">
						<path id="path4193" class="s0" d="m940.2 399.4c0-6.5-0.2-11.5-0.5-16.5h9.8l0.6 10h0.2c3.1-5.6 10.1-11.3 20.2-11.3 8.4 0 21.5 5.1 21.5 25.9v36.3h-11.1v-35.1c0-9.8-3.6-18-14.1-18-7.1 0-12.8 5.1-14.8 11.3-0.5 1.4-0.8 3.3-0.8 5.2v36.6h-11z"/>
					</g>
				</g>
			</g>
		</g>
	</g>
</svg>