<svg version="1.2" xmlns="http://www.w3.org/2000/svg" viewBox="0 0 60 38" width="60" height="38">
	<title>Vector Smart Object-ai</title>
	<style>
		.s0 { fill: #005e94 } 
		.s1 { fill: #fed01f } 
	</style>
	<g id="Layer 1">
		<g id="&lt;Group&gt;">
			<path id="&lt;Path&gt;" class="s0" d="m52.8 7.1h-2.7-12.8-2.8l-1.8 2.1-6.1 6.8-1.8 2.1h-2.8-12.5-2.8l1.8-2.1 0.9-1 1.8-2.1h-2.7-3.6-2c-1.5 0-2.8 1.3-2.8 2.8v5.5 0.5c0 1.6 1.3 2.8 2.8 2.8h0.8 29 2.1c1.5 0 3.6-0.9 4.6-2.1l4.8-5.4z"/>
			<path id="&lt;Path&gt;" class="s1" d="m56.5 0.7c1.5 0 2.8 1.3 2.8 2.9v6c0 1.5-1.3 2.8-2.8 2.8h-1.5-4-2.8l1.9-2.1 0.9-1.1 1.8-2.1h-18.3l-9.7 11h-18.2l13-14.7 0.5-0.6c1-1.1 3.1-2.1 4.6-2.1h0.7z"/>
			<path id="&lt;Compound Path&gt;" fill-rule="evenodd" class="s0" d="m6.4 34.9q0 0.7-0.3 1.2-0.3 0.5-0.8 0.8-0.5 0.3-1.1 0.4-0.6 0.1-1.4 0.1-0.3 0-0.6 0-0.2 0-0.5 0-0.3 0-0.5-0.1-0.3 0-0.4 0-0.4-0.1-0.5-0.2-0.2-0.2-0.2-0.6v-6.8q0-0.4 0.2-0.5 0.1-0.2 0.4-0.2 0.2-0.1 0.4-0.1 0.2 0 0.5 0 0.3 0 0.6-0.1 0.3 0 0.6 0 0.8 0 1.4 0.1 0.7 0.2 1.1 0.4 0.5 0.3 0.8 0.8 0.2 0.4 0.2 1.1v0.2q0 0.5-0.2 1-0.3 0.4-0.7 0.6 0.4 0.3 0.7 0.7 0.3 0.4 0.3 1zm-1.9-3.6q0-0.4-0.4-0.6-0.3-0.3-1.2-0.3h-0.4q-0.2 0-0.3 0-0.1 0.1-0.2 0.1v1.9h1.3q0.3 0 0.6-0.1 0.2 0 0.3-0.2 0.1-0.1 0.2-0.2 0.1-0.2 0.1-0.4zm0 3.4q0-0.4-0.3-0.7-0.2-0.3-0.9-0.3h-1.3v2.1h0.2q0.2 0 0.3 0 0.1 0 0.3 0h0.2q0.8 0 1.2-0.2 0.3-0.3 0.3-0.8zm8 2.4q0 0.1 0 0.2-0.1 0-0.2 0h-1.2q-0.1 0-0.2 0-0.1-0.1-0.1-0.2v-0.2q-0.3 0.3-0.7 0.4-0.3 0.1-0.8 0.1-0.4 0-0.8-0.1-0.3-0.1-0.6-0.3-0.2-0.2-0.4-0.6-0.2-0.4-0.2-0.9v-0.1q0-1 0.7-1.5 0.7-0.4 2.1-0.4h0.6v-0.4q0-0.5-0.2-0.6-0.2-0.2-0.6-0.2-0.3 0-0.6 0-0.2 0-0.5 0-0.3 0-0.5 0.1-0.2 0-0.3 0h-0.1q0 0-0.1-0.1-0.1 0-0.1-0.1v-0.9q0-0.2 0.3-0.3 0.3-0.1 0.8-0.1 0.5-0.1 1.1-0.1 0.6 0 1.1 0.1 0.5 0.1 0.8 0.4 0.4 0.3 0.6 0.7 0.1 0.5 0.1 1.1zm-1.7-2.6h-0.7q-0.3 0-0.5 0.1-0.2 0-0.3 0.1-0.1 0.1-0.1 0.3-0.1 0.2-0.1 0.4v0.1q0 0.3 0.2 0.4 0.2 0.1 0.5 0.1 0.3 0 0.5 0 0.3-0.1 0.5-0.2zm8.6 2.7q-0.1 0-0.2 0h-1.4q0 0-0.1 0-0.1-0.1-0.1-0.2v-3.7q0-0.3 0-0.5-0.1-0.2-0.1-0.4-0.1-0.1-0.3-0.1-0.2-0.1-0.4-0.1-0.3 0-0.5 0.1-0.3 0.1-0.6 0.3v4.4q0 0.1 0 0.2-0.1 0-0.2 0h-1.4q-0.1 0-0.1 0-0.1-0.1-0.1-0.2v-6q0-0.1 0.1-0.1 0-0.1 0.1-0.1h1.3q0.1 0 0.1 0.1 0.1 0 0.1 0.1v0.3q0.5-0.3 0.9-0.5 0.4-0.1 0.9-0.1 0.7 0 1 0.2 0.4 0.2 0.7 0.5 0.2 0.4 0.3 0.9 0 0.4 0 1v3.7q0 0.1 0 0.2zm5.5-0.1q0 0-0.1 0.1-0.3 0-0.7 0.1-0.3 0-0.8 0-1.2 0-2-0.7-0.7-0.7-0.7-2.1v-1q0-1.3 0.7-2.1 0.8-0.7 2-0.7 0.5 0 0.8 0.1 0.4 0 0.7 0.1 0.1 0 0.1 0.1 0.1 0 0.1 0.1v1q0 0.1-0.1 0.2 0 0-0.1 0-0.4 0-0.7 0-0.2-0.1-0.7-0.1-0.2 0-0.4 0.1-0.2 0.1-0.3 0.2-0.1 0.2-0.2 0.4 0 0.3 0 0.6v1q0 0.4 0 0.6 0.1 0.3 0.2 0.4 0.1 0.2 0.3 0.2 0.2 0.1 0.4 0.1 0.5 0 0.7 0 0.3 0 0.7-0.1 0.1 0 0.1 0.1 0.1 0 0.1 0.1v1q0 0.1-0.1 0.2zm6.3-2.7q0 0.7-0.1 1.2-0.2 0.6-0.6 1-0.3 0.3-0.9 0.5-0.5 0.2-1.2 0.2-0.7 0-1.2-0.2-0.5-0.2-0.9-0.5-0.3-0.4-0.5-1-0.2-0.5-0.2-1.2v-0.8q0-0.6 0.2-1.2 0.2-0.5 0.5-0.9 0.4-0.4 0.9-0.6 0.5-0.2 1.2-0.2 0.7 0 1.2 0.2 0.6 0.2 0.9 0.6 0.4 0.4 0.6 0.9 0.1 0.6 0.1 1.2zm-1.8-0.8q0-1.3-1-1.3-0.5 0-0.7 0.3-0.3 0.4-0.3 1v0.8q0 0.7 0.3 1.1 0.2 0.3 0.7 0.3 1 0 1-1.4zm8.5 3.6q-0.1 0-0.2 0h-1.4q0 0-0.1 0-0.1-0.1-0.1-0.2v-3.7q0-0.3 0-0.5 0-0.2-0.1-0.4-0.1-0.1-0.3-0.1-0.2-0.1-0.4-0.1-0.3 0-0.5 0.1-0.3 0.1-0.6 0.3v4.4q0 0.1 0 0.2-0.1 0-0.2 0h-1.4q0 0-0.1 0-0.1-0.1-0.1-0.2v-6q0-0.1 0.1-0.1 0-0.1 0.1-0.1h1.3q0.1 0 0.2 0.1 0 0 0 0.1v0.3q0.5-0.3 0.9-0.5 0.4-0.1 1-0.1 0.6 0 1 0.2 0.3 0.2 0.6 0.5 0.2 0.4 0.3 0.9 0.1 0.4 0.1 1v3.7q0 0.1-0.1 0.2zm4.8 0.1q-0.3 0-0.5 0-0.2 0-0.4 0-0.5 0-0.9 0-0.3-0.1-0.5-0.3-0.3-0.2-0.4-0.6-0.1-0.4-0.1-1v-3.2l-0.9-0.2q-0.1 0-0.2-0.1-0.1 0-0.1-0.1v-0.8q0-0.1 0.1-0.1 0.1-0.1 0.2-0.1h0.9v-0.9q0-0.1 0-0.2 0.1 0 0.2-0.1l1.4-0.2q0.1 0 0.1 0.1 0.1 0 0.1 0.1v1.2h0.9q0.1 0 0.2 0.1 0.1 0 0.1 0.1v0.9q0 0.1-0.1 0.2-0.1 0.1-0.2 0.1h-0.9v3.2q0 0.4 0.1 0.5 0 0.1 0.3 0.1h0.5q0.3 0 0.3 0.2v0.8q0 0.2-0.2 0.3zm6.2-0.3q0 0.1-0.1 0.2-0.1 0-0.1 0h-1.3q-0.1 0-0.2 0 0-0.1 0-0.2v-0.2q-0.4 0.3-0.7 0.4-0.4 0.1-0.9 0.1-0.4 0-0.7 0-0.4-0.1-0.6-0.4-0.3-0.2-0.5-0.6-0.1-0.3-0.1-0.9v-0.1q0-1 0.6-1.4 0.7-0.5 2.1-0.5h0.7v-0.4q0-0.5-0.3-0.6-0.2-0.2-0.6-0.2-0.3 0-0.5 0-0.3 0-0.6 0-0.2 0.1-0.4 0.1-0.2 0-0.4 0-0.1 0-0.2 0 0-0.1 0-0.2v-0.9q0-0.2 0.2-0.3 0.3 0 0.8-0.1 0.6-0.1 1.1-0.1 0.7 0 1.1 0.1 0.5 0.2 0.9 0.4 0.3 0.3 0.5 0.7 0.2 0.5 0.2 1.1zm-1.8-2.5h-0.7q-0.2 0-0.4 0-0.2 0.1-0.3 0.2-0.2 0.1-0.2 0.2 0 0.2 0 0.4v0.1q0 0.3 0.1 0.4 0.2 0.1 0.6 0.1 0.2 0 0.5 0 0.2-0.1 0.4-0.2zm7.3 2.6q-0.1 0.1-0.2 0.1-0.2 0.1-0.6 0.1-0.4 0.1-0.9 0.1-1.2 0-1.9-0.8-0.7-0.7-0.7-2.1v-0.9q0-1.4 0.7-2.2 0.7-0.7 1.9-0.7 0.5 0 0.9 0.1 0.4 0 0.6 0.1 0.1 0 0.2 0.1 0 0 0 0.1v1q0 0.1 0 0.2-0.1 0-0.2 0-0.3 0-0.6 0-0.3 0-0.8 0-0.2 0-0.3 0-0.2 0.1-0.3 0.2-0.2 0.2-0.2 0.4-0.1 0.3-0.1 0.7v0.9q0 0.4 0.1 0.6 0 0.3 0.2 0.4 0.1 0.2 0.3 0.3 0.1 0 0.3 0 0.5 0 0.8 0 0.3 0 0.6-0.1 0.1 0 0.2 0.1 0 0 0 0.1v1q0 0.2 0 0.2zm4.7 0.2q-0.3 0-0.5 0-0.2 0.1-0.4 0.1-0.5 0-0.8-0.1-0.4-0.1-0.6-0.3-0.3-0.2-0.4-0.6-0.1-0.4-0.1-1v-3.2l-0.9-0.2q-0.1 0-0.2-0.1 0 0 0-0.1v-0.8q0 0 0-0.1 0.1-0.1 0.2-0.1h0.9v-0.9q0-0.1 0.1-0.2 0 0 0.1 0l1.4-0.3q0.1 0 0.2 0.1 0 0 0 0.1v1.2h1q0 0 0.1 0.1 0.1 0 0.1 0.1v1q0 0-0.1 0.1-0.1 0.1-0.1 0.1h-1v3.3q0 0.3 0.1 0.4 0 0.1 0.3 0.1h0.6q0.2 0 0.2 0.2v0.9q0 0.1-0.2 0.2z"/>
		</g>
	</g>
</svg>