<svg version="1.2" xmlns="http://www.w3.org/2000/svg" viewBox="0 0 48 38" width="48" height="38">
	<title>Vector Smart Object-ai</title>
	<style>
		.s0 { fill: #231f20 } 
		.s1 { fill: #f1692b } 
		.s2 { fill: #ed372b } 
		.s3 { fill: #f6982e } 
	</style>
	<g id="Layer 1">
		<g id="&lt;Group&gt;">
			<path id="&lt;Compound Path&gt;" fill-rule="evenodd" class="s0" d="m46.5 36.5q0.1 0 0.2 0 0.1 0 0.1 0.1 0.1 0 0.1 0.1 0 0.1 0 0.1 0 0.1 0 0.2 0 0.1-0.1 0.1 0 0.1-0.1 0.1-0.1 0-0.2 0 0 0-0.1 0-0.1 0-0.1-0.1-0.1 0-0.1-0.1-0.1-0.1-0.1-0.2 0 0 0.1-0.1 0-0.1 0.1-0.1 0-0.1 0.1-0.1 0.1 0 0.1 0zm0 0.6q0.1 0 0.2 0 0 0 0-0.1 0.1 0 0.1 0 0-0.1 0-0.2 0 0 0-0.1 0 0-0.1-0.1 0 0 0 0-0.1-0.1-0.2-0.1 0 0-0.1 0.1 0 0-0.1 0 0 0.1 0 0.1-0.1 0.1-0.1 0.1 0 0.1 0.1 0.2 0 0 0 0 0.1 0.1 0.1 0.1 0.1 0 0.1 0zm0.1-0.4q0 0 0.1 0 0 0 0 0.1 0 0 0 0-0.1 0.1-0.1 0.1l0.1 0.1h-0.1l-0.1-0.1v0.1h-0.1v-0.3zm-0.1 0v0.1h0.1q0 0 0 0 0.1 0 0.1 0 0-0.1-0.1-0.1 0 0 0 0zm-32.8 0.3h-0.8v-0.5c-0.3 0.4-0.7 0.6-1.2 0.6-1.1 0-1.9-0.8-1.9-2 0-1.2 0.8-2 1.9-2 0.5 0 0.9 0.2 1.2 0.5v-0.4h0.8zm-1.9-0.7c0.7 0 1.2-0.6 1.2-1.3 0-0.7-0.5-1.2-1.2-1.2-0.7 0-1.2 0.6-1.2 1.2 0 0.7 0.5 1.3 1.2 1.3zm33.4 0.7h-0.9v-0.5c-0.2 0.3-0.6 0.6-1.2 0.6-1.1 0-1.9-0.9-1.9-2.1 0-1.1 0.8-2 1.9-2 0.6 0 1 0.2 1.2 0.6v-2h0.9zm-2-0.7c0.7 0 1.2-0.6 1.2-1.3 0-0.7-0.5-1.2-1.2-1.2-0.7 0-1.2 0.6-1.2 1.2 0 0.7 0.5 1.3 1.2 1.3zm-17.2-1.3q0 0.2 0 0.4h-2.9c0.1 0.6 0.6 0.9 1.2 0.9 0.3 0 0.8-0.1 1.1-0.4l0.4 0.6c-0.5 0.4-1 0.6-1.6 0.6-1.1 0-2-0.8-2-2.1 0-1.2 0.8-2 2-2 1 0 1.8 0.8 1.8 2zm-2.9-0.3h2c-0.1-0.6-0.4-0.9-1-0.9-0.6 0-0.9 0.3-1 0.9zm14.3 2.3h-0.9v-0.5c-0.2 0.3-0.6 0.6-1.2 0.6-1 0-1.9-0.9-1.9-2.1 0-1.1 0.9-2 1.9-2 0.6 0 1 0.2 1.2 0.6v-0.5h0.9zm-2-0.7c0.7 0 1.2-0.5 1.2-1.2 0-0.7-0.5-1.3-1.2-1.3-0.7 0-1.1 0.6-1.1 1.3 0 0.7 0.4 1.2 1.1 1.2zm-3.8-3.2c0.6 0 1 0.1 1.4 0.4l-0.4 0.7q-0.5-0.3-1-0.4c-0.7 0.1-1.2 0.5-1.2 1.3 0 0.7 0.5 1.2 1.2 1.2q0.5 0 1-0.3l0.4 0.6c-0.4 0.4-0.8 0.5-1.4 0.5-1.2 0-2.1-0.9-2.1-2 0-1.2 0.9-2 2.1-2zm9.3 0.1l-0.2 0.8q-0.3-0.2-0.5-0.1c-0.6 0-0.9 0.3-0.9 0.9v2.2h-0.8v-3.8h0.8v0.4c0.2-0.3 0.6-0.5 1-0.5 0.2 0 0.4 0 0.6 0.1zm-23.4 0.9c-0.2-0.1-0.7-0.3-1.2-0.3-0.4 0-0.7 0.2-0.7 0.5 0 0.2 0.3 0.3 0.6 0.3l0.4 0.1c0.9 0.1 1.4 0.5 1.4 1.1 0 0.8-0.7 1.3-1.8 1.3-0.6 0-1.2-0.2-1.6-0.5l0.3-0.6c0.3 0.2 0.8 0.4 1.3 0.4q0.9-0.1 0.9-0.5 0-0.3-0.7-0.4l-0.4-0.1c-0.8-0.1-1.3-0.5-1.3-1.1 0-0.8 0.6-1.2 1.6-1.2 0.6 0 1.2 0.1 1.6 0.4zm11.8-1l-0.3 0.8q-0.3-0.1-0.5-0.1c-0.6 0-0.9 0.3-0.9 1v2.1h-0.8v-3.8h0.8v0.4c0.3-0.3 0.6-0.5 1.1-0.5 0.1 0 0.4 0 0.6 0.1zm-7.8 0.7h-1.4v1.8c0 0.4 0.2 0.6 0.6 0.6 0.2 0 0.5 0 0.7-0.2l0.3 0.7c-0.3 0.2-0.7 0.3-1.1 0.3-1 0-1.3-0.5-1.3-1.4v-1.8h-0.8v-0.7h0.8v-1.2h0.8v1.2h1.4zm-13.4 3.1v-2.2c0-0.6-0.2-1-0.8-1-0.6 0-1 0.4-1 1v2.2h-0.8v-2.2c0-0.6-0.3-1-0.8-1-0.6 0-1 0.4-1 1v2.2h-0.8v-3.9h0.8v0.5c0.3-0.5 0.7-0.6 1.1-0.6 0.6 0 1 0.3 1.3 0.7 0.4-0.5 0.9-0.7 1.4-0.7 0.9 0 1.5 0.6 1.5 1.5v2.5z"/>
			<path id="&lt;Path&gt;" class="s1" d="m30.3 26.6h-12.7v-22.8h12.7z"/>
			<path id="&lt;Path&gt;" class="s2" d="m18.4 15.2c0-4.6 2.2-8.7 5.5-11.4-2.4-1.9-5.6-3.1-8.9-3.1-8.1 0-14.5 6.5-14.5 14.5 0 8 6.4 14.5 14.5 14.5 3.3 0 6.5-1.1 8.9-3.1-3.3-2.6-5.5-6.8-5.5-11.4z"/>
			<path id="&lt;Compound Path&gt;" fill-rule="evenodd" class="s3" d="m47.4 15.2c0 8-6.5 14.5-14.5 14.5-3.4 0-6.5-1.1-9-3.1 3.4-2.6 5.6-6.8 5.6-11.4 0-4.6-2.2-8.7-5.6-11.4 2.5-1.9 5.6-3.1 9-3.1 8 0 14.5 6.5 14.5 14.5zm-1.5 9v-0.5h-0.2v-0.1h0.5v0.1h-0.2v0.5zm1 0v-0.4l-0.2 0.3h-0.1l-0.2-0.3v0.4h-0.1v-0.6h0.2l0.1 0.4 0.2-0.4h0.2v0.6z"/>
		</g>
	</g>
</svg>