<svg version="1.2" xmlns="http://www.w3.org/2000/svg" viewBox="0 0 36 36" width="36" height="36">
	<title>Vector Smart Object-ai</title>
	<style>
		.s0 { fill: #fdc230 } 
		.s1 { fill: #fefefe } 
	</style>
	<g id="Layer 1">
		<g id="&lt;Group&gt;">
			<path id="&lt;Path&gt;" class="s0" d="m18.1 0.4c9.8 0 17.7 7.9 17.7 17.7 0 9.7-7.9 17.7-17.7 17.7-9.7 0-17.7-8-17.7-17.7 0-9.8 8-17.7 17.7-17.7z"/>
			<path id="&lt;Path&gt;" class="s1" d="m17.6 17.5c-3.4-4.6 2-9.5 7.3-5.6 0.4 0.3 0.6 0.5 0.8 0.7 0.5 0.8-0.4 1.7 1.3 2.8 1 0.7 2.3 1.4 3 2.3-0.2 0.6-0.6 1.5-1.2 1-0.6-0.5-0.9-1-1.4-1.2-2 0.4-4.8 2.8-1.1 3.6 0 0.2-0.1 0.4-0.3 0.5-1.5 0.4-2.9-1.4-2.6-2.5 0-0.2-0.3-0.3-1-0.6q0 0.3 0 0.6c0.1 4.9 5.1 3.8 4.9 1.9-0.1-0.9-1.3-0.6-1.6-0.9-0.5-0.3 1.7-3 2.2-0.1 1.7 1.3 2.9-1.2 3.9-2.7-0.7-1.1-3.3-2.2-4.2-2.9-1.3-1.2 0.2-1.5-1.1-2.6-0.4-0.4-1.1-0.9-2.3-1.6-1.7-1.1-3.6-1.1-5.7-0.4-3.5 1.2-4.3 5.9-1.1 9.2h0.1l10.9 10.2 0.8-0.9-9.9-9.1q0-0.1-0.1-0.1l-1.1-1c-0.1-0.2-0.3-0.4-0.5-0.6z"/>
			<path id="&lt;Path&gt;" class="s1" d="m23.2 13.4c0 0.1 0.6 1.1 1 1.4 0.4-0.1 0.7-0.6 0.8-0.9z"/>
			<path id="&lt;Path&gt;" class="s1" d="m15.7 32c-1.4-7.8-6.5-17.3-2.8-22.5 0.5-0.7 1-1.2 1.7-1.5 1.2-0.7 3.4-1 5.4-1.4l-0.6-1.2c-0.5 0.1-2 0.3-3.4 0.7-0.8 0.2-1.4 0.4-1.9 0.6-0.5 0.3-1 0.7-1.5 1.2-4.8 4.9-1 13.7 1.1 21.4 0.2 0.9 0.3 1.8 0.5 2.3z"/>
			<path id="&lt;Path&gt;" class="s1" d="m23.7 31.9c-0.7-1.7-6-9.1-7.6-12-3.7-6.5-1.7-9.2 0.8-10.3 1.2-0.6 3.2-1 4-1.2l-0.4-1c-1.2 0.1-3.1 0.5-4.1 1-3.7 1.7-4.6 6.2-2 11l8.5 13.2z"/>
			<path id="&lt;Path&gt;" class="s1" d="m8.5 28.6c0-3.5-0.1-10.4 0.1-14.7 0-0.9 0.2-1.7 0.4-2.3 1.5-5.9 5.3-6.5 10-7l-0.6-1c-2.3 0-4.9 0.6-6.9 1.9-2.9 1.8-4.1 5-4.1 8.3l-0.2 13.1z"/>
			<path id="&lt;Path&gt;" class="s1" d="m5.3 19.3l-1-0.1c-1.1-4.4 0.7-10.7 4.7-12.8-1.4 2-4.8 5.7-3.7 12.9z"/>
		</g>
	</g>
</svg>