<svg version="1.2" xmlns="http://www.w3.org/2000/svg" viewBox="0 0 70 30" width="70" height="30">
	<title>Vector Smart Object-ai</title>
	<style>
		.s0 { fill: #231f20 } 
	</style>
	<g id="Layer 1">
		<g id="&lt;Group&gt;">
			<path id="&lt;Path&gt;" class="s0" d="m13.2 4.5c0.8-1 1.3-2.3 1.2-3.6-1.2 0-2.6 0.7-3.4 1.7-0.7 0.9-1.4 2.2-1.2 3.5 1.3 0.1 2.6-0.6 3.4-1.6z"/>
			<path id="&lt;Path&gt;" class="s0" d="m14.4 6.4c-1.9-0.1-3.5 1.1-4.4 1.1-0.9 0-2.3-1.1-3.8-1-1.9 0-3.7 1.1-4.7 2.8-2 3.5-0.5 8.7 1.4 11.5 1 1.4 2.1 3 3.7 2.9 1.4 0 1.9-0.9 3.7-0.9 1.7 0 2.2 0.9 3.8 0.9 1.5 0 2.5-1.4 3.5-2.8 1.1-1.6 1.5-3.2 1.5-3.2 0-0.1-3-1.2-3-4.7 0-2.9 2.3-4.3 2.5-4.3-1.4-2-3.5-2.3-4.2-2.3z"/>
			<path id="&lt;Compound Path&gt;" fill-rule="evenodd" class="s0" d="m33.1 2.5c4.1 0 7 2.8 7 6.9 0 4.1-2.9 7-7.1 7h-4.5v7.2h-3.3v-21.1zm-4.6 11.1h3.8c2.8 0 4.4-1.5 4.4-4.2 0-2.6-1.6-4.2-4.4-4.2h-3.8z"/>
			<path id="&lt;Compound Path&gt;" fill-rule="evenodd" class="s0" d="m40.9 19.2c0-2.7 2.1-4.3 5.9-4.5l4-0.2v-1.2c0-1.7-1.1-2.7-3.1-2.7-1.6 0-2.8 0.9-3.1 2.2h-2.9c0-2.7 2.6-4.7 6.1-4.7 3.7 0 6.2 1.9 6.2 5v10.5h-3v-2.6h-0.1c-0.9 1.7-2.8 2.7-4.8 2.7-3.1 0-5.2-1.8-5.2-4.5zm9.9-1.4v-1.2l-3.6 0.3c-2.1 0.1-3.1 0.9-3.1 2.2 0 1.3 1.1 2.1 2.8 2.1 2.3 0 3.9-1.4 3.9-3.4z"/>
			<path id="&lt;Path&gt;" class="s0" d="m56.8 29.2v-2.5c0.2 0 0.7 0 0.9 0 1.5 0 2.3-0.6 2.8-2.2l0.3-0.9-5.6-15.3h3.5l3.8 12.4h0.1l3.9-12.4h3.3l-5.8 16.1c-1.3 3.7-2.8 4.9-6 4.9-0.2 0-1 0-1.2-0.1z"/>
		</g>
	</g>
</svg>