<svg version="1.2" xmlns="http://www.w3.org/2000/svg" viewBox="0 0 44 41" width="44" height="41">
	<title>Vector Smart Object-ai</title>
	<style>
		.s0 { fill: #fdc230 } 
		.s1 { fill: #fefefe } 
	</style>
	<g id="Layer 1">
		<g id="&lt;Group&gt;">
			<path id="&lt;Path&gt;" class="s0" d="m22.2 40.7c-12 0-21.7-9-21.7-20.1 0-11.2 9.7-20.2 21.7-20.2 11.9 0 21.6 9 21.6 20.2 0 11.1-9.7 20.1-21.6 20.1z"/>
			<path id="&lt;Path&gt;" class="s1" d="m21.5 19.9c-4.1-5.2 2.4-10.8 8.9-6.4 0.5 0.4 0.8 0.6 1 0.9 0.6 0.8-0.5 1.9 1.5 3.1 1.3 0.8 2.9 1.6 3.8 2.7-0.3 0.6-0.7 1.7-1.5 1.1-0.7-0.6-1.1-1.1-1.7-1.3-2.4 0.3-5.8 3.1-1.4 4.1 0 0.1 0 0.4-0.3 0.5-1.9 0.4-3.6-1.6-3.1-2.9-0.2-0.2-0.5-0.3-1.3-0.6q0 0.3 0 0.6c0.2 5.6 6.3 4.4 5.9 2.3-0.1-1.1-1.6-0.8-1.9-1.1-0.6-0.4 2.1-3.4 2.6-0.1 2.1 1.5 3.6-1.4 4.8-3.1-0.8-1.2-4-2.4-5-3.3-1.6-1.4 0.1-1.8-1.4-3-0.5-0.4-1.3-1-2.9-1.8-2.1-1.2-4.3-1.3-6.9-0.4-4.3 1.3-5.2 6.7-1.3 10.4v0.1l13.4 11.5 1-1-12.1-10.3q0-0.1-0.1-0.2l-1.3-1.1c-0.2-0.3-0.5-0.4-0.7-0.7z"/>
			<path id="&lt;Path&gt;" class="s1" d="m28.3 15.2c0.1 0.2 0.8 1.3 1.3 1.7 0.5-0.2 0.9-0.7 0.9-1.1z"/>
			<path id="&lt;Path&gt;" class="s1" d="m19.2 36.5c-1.7-9-7.9-19.8-3.4-25.7 0.6-0.8 1.2-1.3 2-1.7 1.5-0.8 4.2-1.1 6.6-1.6l-0.6-1.3c-0.7 0-2.5 0.3-4.2 0.7-1 0.2-1.7 0.5-2.3 0.8-0.7 0.3-1.2 0.7-1.9 1.3-5.8 5.6-1.2 15.6 1.3 24.3 0.3 1.1 0.4 2.1 0.7 2.7z"/>
			<path id="&lt;Path&gt;" class="s1" d="m29 36.3c-0.9-1.9-7.4-10.3-9.4-13.6-4.4-7.4-2-10.5 1-11.8 1.5-0.7 4-1.1 5-1.3l-0.6-1.1c-1.4 0.1-3.7 0.5-4.9 1-4.5 2-5.6 7.1-2.5 12.6l10.4 15z"/>
			<path id="&lt;Path&gt;" class="s1" d="m10.4 32.6c0-4-0.1-11.8 0.1-16.8 0.1-1 0.3-1.9 0.5-2.6 1.8-6.8 6.5-7.4 12.2-8l-0.7-1.1c-2.8 0-6 0.7-8.4 2.1-3.5 2.2-5.1 5.7-5.1 9.5l-0.2 14.9z"/>
			<path id="&lt;Path&gt;" class="s1" d="m6.5 22l-1.3-0.1c-1.3-5.1 0.9-12.3 5.7-14.6-1.7 2.2-5.7 6.5-4.4 14.7z"/>
		</g>
	</g>
</svg>