<svg version="1.2" xmlns="http://www.w3.org/2000/svg" viewBox="0 0 58 43" width="58" height="43">
	<title>Vector Smart Object-ai</title>
	<style>
		.s0 { fill: #231f20 } 
		.s1 { fill: #f1692b } 
		.s2 { fill: #ed372b } 
		.s3 { fill: #f6982e } 
	</style>
	<g id="Layer 1">
		<g id="&lt;Group&gt;">
			<path id="&lt;Compound Path&gt;" fill-rule="evenodd" class="s0" d="m56.2 41.3q0.1 0 0.2 0 0.1 0 0.2 0.1 0 0 0.1 0.1 0 0.1 0 0.2 0 0.1 0 0.2-0.1 0-0.1 0.1-0.1 0-0.2 0.1-0.1 0-0.2 0-0.1 0-0.2 0 0-0.1-0.1-0.1-0.1-0.1-0.1-0.1 0-0.1 0-0.2 0-0.1 0-0.2 0-0.1 0.1-0.1 0.1-0.1 0.1-0.1 0.1 0 0.2 0zm0 0.7q0.1 0 0.2 0 0 0 0.1-0.1 0 0 0.1-0.1 0 0 0-0.1 0-0.1 0-0.1-0.1-0.1-0.1-0.2-0.1 0-0.1 0-0.1-0.1-0.2-0.1 0 0-0.1 0.1-0.1 0-0.1 0-0.1 0.1-0.1 0.2 0 0 0 0.1 0 0.1 0 0.1 0 0.1 0.1 0.1 0 0.1 0.1 0.1 0.1 0 0.1 0zm0.1-0.5q0 0 0.1 0 0 0.1 0 0.1 0 0.1 0 0.1 0 0-0.1 0l0.1 0.2h-0.1l-0.1-0.2v0.2h-0.1v-0.4zm-0.1 0.1v0.1h0.1q0 0 0 0 0-0.1 0-0.1 0 0 0 0 0 0 0 0zm-39.6 0.3h-1v-0.5c-0.4 0.3-0.8 0.6-1.5 0.6-1.3 0-2.3-1-2.3-2.3 0-1.3 1-2.3 2.3-2.3 0.7 0 1.1 0.3 1.5 0.7v-0.6h1zm-1-2.2c0-0.7-0.6-1.4-1.4-1.4-0.8 0-1.4 0.7-1.4 1.4 0 0.8 0.6 1.4 1.4 1.4 0.8 0 1.4-0.6 1.4-1.4zm39 2.2h-1.1v-0.5c-0.3 0.4-0.8 0.6-1.4 0.6-1.3 0-2.4-0.9-2.4-2.3 0-1.3 1.1-2.2 2.4-2.2 0.6 0 1.1 0.2 1.4 0.6v-2.3h1.1zm-1-2.2c0-0.7-0.6-1.4-1.4-1.4-0.8 0-1.4 0.7-1.4 1.4 0 0.8 0.6 1.4 1.4 1.4 0.8 0 1.4-0.6 1.4-1.4zm-22.2 0q0 0.2 0 0.4h-3.5c0.1 0.8 0.7 1.1 1.4 1.1 0.5 0 1-0.2 1.3-0.5l0.5 0.7c-0.5 0.5-1.2 0.6-1.9 0.6-1.4 0-2.4-0.9-2.4-2.3 0-1.3 1-2.3 2.4-2.3 1.3 0 2.2 1 2.2 2.3zm-3.5-0.4h2.4c-0.1-0.6-0.5-1-1.2-1-0.7 0-1.1 0.4-1.2 1zm17.3 2.6h-1.1v-0.5c-0.3 0.4-0.8 0.6-1.4 0.6-1.3 0-2.4-0.9-2.4-2.3 0-1.3 1.1-2.3 2.4-2.3 0.6 0 1.1 0.3 1.4 0.7v-0.5h1.1zm-1-2.2c0-0.8-0.6-1.4-1.4-1.4-0.8 0-1.4 0.6-1.4 1.4 0 0.7 0.6 1.4 1.4 1.4 0.8 0 1.4-0.7 1.4-1.4zm-6-2.3c0.7 0 1.1 0.1 1.6 0.5l-0.5 0.8q-0.5-0.4-1.2-0.4c-0.8 0-1.4 0.5-1.4 1.4 0 0.8 0.6 1.4 1.4 1.4q0.7 0 1.2-0.4l0.5 0.7c-0.5 0.4-0.9 0.6-1.6 0.6-1.5 0-2.5-1-2.5-2.3 0-1.3 1-2.3 2.5-2.3zm11.2 0.1l-0.3 0.9q-0.3-0.1-0.6-0.1c-0.7 0-1 0.4-1 1.1v2.5h-1v-4.4h1v0.5c0.3-0.4 0.6-0.6 1.2-0.6 0.2 0 0.5 0 0.7 0.1zm-28.2 1.1c-0.3-0.2-0.9-0.4-1.5-0.4-0.6 0-0.9 0.2-0.9 0.5 0 0.3 0.4 0.4 0.8 0.5h0.5c1 0.2 1.6 0.6 1.6 1.3 0 0.9-0.8 1.5-2.1 1.5-0.8 0-1.5-0.2-2-0.6l0.4-0.7c0.4 0.2 0.9 0.4 1.6 0.4 0.7 0 1.1-0.2 1.1-0.5q0-0.4-0.9-0.5h-0.4c-1.1-0.2-1.6-0.6-1.6-1.3 0-0.9 0.7-1.4 1.9-1.4 0.7 0 1.4 0.1 1.9 0.4zm14.2-1.1l-0.3 0.9q-0.3-0.1-0.6-0.1c-0.7 0-1 0.4-1 1.1v2.5h-1v-4.4h1v0.6c0.2-0.4 0.6-0.7 1.2-0.7 0.2 0 0.5 0.1 0.7 0.1zm-9.4 0.9h-1.6v2c0 0.4 0.2 0.7 0.7 0.7 0.2 0 0.6-0.1 0.9-0.3l0.3 0.9c-0.4 0.2-0.9 0.3-1.3 0.3-1.2 0-1.6-0.6-1.6-1.6v-2h-1v-0.9h1v-1.3h1v1.3h1.6zm-16.1 3.5v-2.4c0-0.7-0.3-1.2-1-1.2-0.7 0-1.2 0.4-1.2 1.2v2.4h-1v-2.4c0-0.7-0.3-1.2-1-1.2-0.7 0-1.1 0.4-1.1 1.2v2.4h-1.1v-4.3h1v0.5c0.4-0.5 0.9-0.6 1.4-0.6 0.7 0 1.2 0.2 1.5 0.7 0.5-0.6 1.1-0.8 1.7-0.7 1.1 0 1.8 0.7 1.8 1.7v2.7z"/>
			<path id="&lt;Path&gt;" class="s1" d="m36.6 4.3v25.8h-15.4v-25.8z"/>
			<path id="&lt;Path&gt;" class="s2" d="m22.2 17.2c0-5.2 2.6-9.9 6.7-12.9-3-2.2-6.7-3.5-10.8-3.5-9.7 0-17.6 7.3-17.6 16.4 0 9.1 7.9 16.4 17.6 16.4 4.1 0 7.8-1.3 10.8-3.5-4.1-3-6.7-7.7-6.7-12.9z"/>
			<path id="&lt;Compound Path&gt;" fill-rule="evenodd" class="s3" d="m57.3 17.2c0 9.1-7.9 16.4-17.5 16.4-4.1 0-7.9-1.3-10.9-3.5 4.1-3 6.7-7.7 6.7-12.9 0-5.2-2.6-9.9-6.7-12.9 3-2.2 6.8-3.5 10.9-3.5 9.6 0 17.5 7.3 17.5 16.4zm-1.8 10.2v-0.5h-0.2v-0.2h0.5v0.2h-0.2v0.5zm1.1 0v-0.5l-0.2 0.4h-0.1l-0.2-0.4v0.5h-0.1v-0.7h0.2l0.2 0.5 0.2-0.5h0.2v0.7z"/>
		</g>
	</g>
</svg>