<svg version="1.2" xmlns="http://www.w3.org/2000/svg" viewBox="0 0 44 41" width="44" height="41">
	<title>Vector Smart Object-ai</title>
	<style>
		.s0 { fill: #1b63ae } 
		.s1 { fill: #f9fafb } 
	</style>
	<g id="Layer 1">
		<g id="&lt;Group&gt;">
			<path id="&lt;Path&gt;" class="s0" d="m21.9 41.1c-2.6 0-5.2-0.1-7.7-0.6-3-0.5-5.9-1.5-8.3-3.4-1.4-1.2-2.4-2.7-3.3-4.3-0.9-1.9-1.4-3.8-1.7-5.9-0.5-2.8-0.5-5.7-0.4-8.6 0.1-2.7 0.4-5.3 1.3-7.9 0.7-2.1 1.8-4 3.3-5.6 1-1 2.2-1.7 3.5-2.4 2.1-1 4.4-1.6 6.8-1.9 2.5-0.4 5-0.5 7.4-0.4 2.9 0 5.8 0.3 8.6 1 2.5 0.7 4.9 1.7 6.8 3.5 1.1 0.9 1.9 2.1 2.5 3.3 1.1 2 1.7 4.1 2.1 6.3 0.4 2.9 0.5 5.7 0.4 8.6-0.1 2.7-0.4 5.4-1.4 8-0.7 2-1.7 3.8-3.1 5.4-1 1-2.1 1.7-3.3 2.4-2.1 1.1-4.4 1.7-6.7 2.1q-3.4 0.4-6.8 0.4z"/>
			<path id="&lt;Path&gt;" class="s1" d="m7 22.6q0-2.3 0-4.6c0-1.3 0.9-2.2 2.3-2.2q1.3 0 2.6 0c2.5 0 4.6 1.9 4.8 4.2 0.2 2.5-1.6 4.7-4.2 5-0.4 0-0.8 0-1.3 0-0.2 0-0.2 0-0.2-0.2q0-0.7 0-1.3c0-0.2 0-0.2 0.2-0.2 0.5-0.1 1 0 1.5-0.2 1.4-0.3 2.3-1.6 2.1-2.9-0.1-1.4-1.3-2.6-2.8-2.6q-1.4 0-2.7 0c-0.4 0-0.5 0.1-0.5 0.4q0 4.7 0 9.4c0 0.2 0 0.3-0.3 0.3q-0.7 0-1.3 0c-0.2 0-0.2 0-0.2-0.2q0-2.5 0-4.9z"/>
			<path id="&lt;Path&gt;" class="s1" d="m27.4 22.6q0 1.1 0 2.1c0 0.3-0.1 0.3-0.3 0.3q-0.6 0-1.2 0c-0.3 0-0.4 0-0.4-0.3q0.1-2 0.1-4.1c0-1.5-1.3-2.8-3-3-1.5-0.1-2.9 0.9-3.2 2.4-0.3 1.5 0.7 2.9 2.2 3.2 0.4 0 0.8 0 1.2 0 0.2 0 0.3 0.1 0.3 0.3q0 0.6 0 1.3c0 0.1-0.1 0.2-0.2 0.2-1.5 0.1-2.9-0.2-4-1.3-1.7-1.6-1.9-4.2-0.3-6.1 1.3-1.5 3-2.1 5.1-1.6 2 0.5 3.3 1.8 3.6 3.9 0.2 0.8 0.1 2.7 0.1 2.7z"/>
			<path id="&lt;Path&gt;" class="s1" d="m29.9 28q0.3-0.5 0.5-0.9 2.7-5.3 5.5-10.7c0.1-0.2 0.2-0.3 0.5-0.3q0.7 0 1.4 0c0.3 0 0.3 0.1 0.2 0.3q-1.8 3.4-3.6 6.9-1.1 2.2-2.3 4.5c-0.1 0.1-0.2 0.2-0.4 0.2-0.5 0-1.1 0-1.8 0z"/>
			<path id="&lt;Path&gt;" class="s1" d="m31.1 22.9q-0.5-1.2-1.1-2.3-1.1-2.1-2.2-4.2c-0.1-0.3-0.1-0.3 0.2-0.3q0.8 0 1.5 0c0.2 0 0.3 0 0.4 0.2q1.1 2.2 2.2 4.5c0 0 0.1 0.2 0 0.2q-0.4 0.9-1 1.9z"/>
		</g>
	</g>
</svg>