<svg version="1.2" xmlns="http://www.w3.org/2000/svg" viewBox="0 0 72 43" width="72" height="43">
	<title>Vector Smart Object-ai</title>
	<style>
		.s0 { fill: #dd222b } 
		.s1 { fill: #184681 } 
		.s2 { fill: #0e7a8b } 
		.s3 { fill: #fefefe } 
	</style>
	<g id="Layer 1">
		<g id="&lt;Group&gt;">
			<path id="&lt;Path&gt;" class="s0" d="m0.9 38.7c-0.5 2.3 1 4.1 3.3 4.1h18.4c2.4 0 4.8-1.8 5.3-4.1l8.5-34.3c0.5-2.2-1-4-3.3-4h-18.4c-2.4 0-4.8 1.8-5.3 4z"/>
			<path id="&lt;Path&gt;" class="s1" d="m17 38.7c-0.6 2.3 0.9 4.1 3.3 4.1h18.4c2.4 0 4.7-1.8 5.3-4.1l8.5-34.3c0.5-2.2-1-4-3.4-4h-18.4c-2.3 0-4.7 1.8-5.3 4z"/>
			<path id="&lt;Path&gt;" class="s2" d="m36.5 38.7c-0.6 2.3 0.9 4.1 3.3 4.1h18.4c2.4 0 4.8-1.8 5.3-4.1l8.5-34.3c0.5-2.2-1-4-3.4-4h-18.3c-2.4 0-4.8 1.8-5.4 4z"/>
			<path id="&lt;Compound Path&gt;" fill-rule="evenodd" class="s3" d="m48.1 25.4q-0.2 0-0.4 0 0.1-0.4 0.2-0.7 0.1-0.3 0.2-0.6c0-0.1 0.1-0.1 0.1-0.1q1 0 2 0 0 0 0.1 0 0 0.2-0.1 0.4 0.3-0.1 0.6-0.2 0.8-0.2 1.6-0.2 1 0 2.1 0 0.1 0 0.2 0 0 0.1 0 0.2-0.2 0.5-0.4 1 0 0.2-0.2 0.2c-0.2 0-0.2 0-0.3 0.2q-0.9 3-1.8 6.1-0.1 0.1-0.1 0.1 0.2 0.1 0.4 0.1 0 0 0 0.1-0.2 0.5-0.3 1-0.1 0.2-0.3 0.2c-0.1-0.1-0.2 0-0.3 0.2-0.1 0.3-0.1 0.3-0.5 0.3h-1.7q0.1-0.2 0.2-0.5h-4.1q0-0.1 0-0.2 0.2-0.5 0.4-1c0-0.1 0.1-0.2 0.2-0.1 0.2 0 0.2-0.1 0.3-0.3q0.9-3 1.9-6.1 0 0 0-0.1zm3.5 0q-0.8 0-1.5 0c0 0-0.1 0.1-0.1 0.1q-0.1 0.2-0.1 0.4-0.2 0.6-0.4 1.2 0.1 0 0.1 0 0.8-0.2 1.5-0.4c0 0 0.1-0.1 0.1-0.1q0.2-0.5 0.3-1 0.1-0.1 0.1-0.2zm-0.8 2.6q-0.8 0-1.5 0c0 0-0.1 0-0.1 0q-0.2 0.9-0.5 1.7 0.1 0 0.1 0 0.7-0.3 1.5-0.4c0.1 0 0.1-0.1 0.1-0.1q0.2-0.6 0.4-1.2zm-2.7 3.9q0.7 0 1.4-0.1c0.1 0 0.1 0 0.2-0.1q0.1-0.4 0.2-0.9 0.1-0.1 0.1-0.3-0.6 0-1.3 0c-0.3 0-0.2 0-0.3 0.3q-0.2 0.5-0.3 1.1z"/>
			<path id="&lt;Path&gt;" class="s3" d="m13.1 11.3q-0.1 0.5-0.2 1-0.6 2.8-1.3 5.6 0 0.4 0.1 0.8c0.1 0.5 0.5 0.9 1.2 0.9 0.7 0.1 1.4 0 2-0.5 0.5-0.4 0.7-0.9 0.8-1.4q0.7-3.2 1.4-6.3c0-0.1 0.1-0.1 0.2-0.1q1 0 2 0 0 0 0.1 0 0 0 0 0.1-0.8 3.3-1.5 6.6c-0.4 1.8-1.7 2.9-3.6 3.3-1 0.2-2 0.2-3-0.1-1-0.2-1.7-0.8-2-1.8-0.1-0.5 0-1.1 0.1-1.6q0.7-3.2 1.4-6.4c0.1-0.1 0.1-0.1 0.3-0.1q0.9 0 1.8 0z"/>
			<path id="&lt;Compound Path&gt;" fill-rule="evenodd" class="s3" d="m40.3 23.9q-0.1 0.4-0.1 0.7 0.3-0.2 0.6-0.3 0.8-0.4 1.7-0.4 1.5 0 3 0 0.1 0 0.2 0 0 0.1 0 0.2-0.7 2.2-1.3 4.3c-0.1 0.5-0.5 0.7-1 0.8q-0.2 0-0.5 0-1.9 0.1-3.8 0c-0.1 0-0.2 0.1-0.2 0.2q-0.5 1.5-0.9 2.9c-0.1 0.3 0 0.3 0.3 0.4h0.7q-0.1 0.5-0.3 0.9c0 0-0.1 0.1-0.1 0.1q-1.1 0-2.3 0-0.1-0.1-0.3-0.1-0.4-0.2-0.3-0.5 0.3-1.1 0.7-2.3 1-3.3 1.9-6.7c0.1-0.1 0.1-0.2 0.3-0.2q0.7 0 1.5 0 0.1 0 0.2 0zm2.9 1.3q0 0-0.1 0-1.4 0-2.9 0-0.1 0-0.1 0.2-0.2 0.4-0.3 0.9 0 0 0 0.1 0 0 0.1-0.1 0.6-0.2 1.4-0.2 0.7 0 1.5 0c0.1 0 0.2-0.1 0.2-0.1q0.1-0.4 0.2-0.8zm-3.9 2.8h0.2q1.3 0.1 2.7 0.1c0.1 0 0.2-0.1 0.2-0.2q0.2-0.3 0.3-0.7-1.6 0-3.1 0c0 0-0.1 0-0.1 0.1q-0.1 0.3-0.2 0.7z"/>
			<path id="&lt;Compound Path&gt;" fill-rule="evenodd" class="s3" d="m43.8 21.2q0.1-0.6 0.2-1.2 0.8-3.3 1.5-6.6 0.2-0.8 0.4-1.6 0-0.2 0.1-0.2 2.4 0 4.8 0c0.5 0 1 0.1 1.4 0.4q1 0.5 1 1.4c0.1 1.1-0.1 2.1-0.9 2.9-0.7 0.9-1.6 1.4-2.8 1.4-0.9 0.1-1.7 0.1-2.6 0.1-0.2 0-0.2 0-0.3 0.2q-0.3 1.5-0.6 3.1 0 0.1-0.2 0.1-1 0-1.9 0 0 0-0.1 0zm3.3-5.2q0 0.1 0.1 0.1 1 0 2.1 0c0.4-0.1 0.9-0.2 1.2-0.5 0.4-0.4 0.5-0.9 0.5-1.5q0-0.5-0.5-0.6c-0.2-0.1-0.5-0.2-0.7-0.2q-1 0-2 0c-0.1 0-0.1 0-0.1 0.1q-0.2 0.7-0.3 1.3-0.2 0.7-0.3 1.3z"/>
			<path id="&lt;Path&gt;" class="s3" d="m55.1 30.1h-2q0.1-0.7 0.3-1.2c0.1-0.1 0.2-0.1 0.2-0.1q1 0 1.9 0c0.2 0 0.2 0 0.3-0.2q0.1-0.4 0.2-0.9h-2.2q0-0.1 0.1-0.2 0.1-0.5 0.2-1c0.1-0.1 0.1-0.1 0.3-0.1q3.1 0 6.2 0 0 0 0.1 0 0 0.1 0 0.2-0.2 0.4-0.3 0.9 0 0.2-0.2 0.2-0.9 0-1.8 0c-0.1 0-0.1 0-0.2 0.1q-0.1 0.5-0.3 1h2.1q-0.1 0.2-0.1 0.3-0.1 0.4-0.2 0.8-0.1 0.2-0.3 0.2-0.9 0-1.9 0-0.2 0-0.3 0.1-0.2 0.3-0.4 0.6c0.3 0 0.6 0 0.9 0 0.1 0 0.2 0 0.2 0.1q0.1 0.7 0.3 1.3 0 0.2 0.3 0.2 0.2 0.1 0.4 0 0 0.1 0 0.2-0.2 0.5-0.3 1 0 0.1-0.2 0.1-0.7 0-1.3 0c-0.4 0-0.8-0.2-0.8-0.6-0.1-0.5-0.2-0.9-0.3-1.3q-0.5 0.7-1 1.4-0.4 0.5-1.1 0.5-0.9 0-1.7 0h-0.3q0.1-0.2 0.2-0.4 0.1-0.4 0.2-0.7 0-0.1 0.2-0.1 0.2 0 0.4 0 0.4 0 0.6-0.3 0.8-1 1.6-2.1 0 0 0 0z"/>
			<path id="&lt;Path&gt;" class="s3" d="m60.5 15.3h2.2q0.1 1 0.1 1.9 0 1 0 2 0 0 0.1 0 0.2-0.6 0.5-1.3 0.6-1.2 1.2-2.4 0-0.2 0.3-0.2 0.7 0 1.4 0 0.1 0 0.2 0 0 0.1-0.1 0.2-1.9 3.6-3.8 7.2c-0.5 0.9-1 1.7-1.8 2.4q-0.9 0.8-2.1 0.8-0.2 0-0.6 0.1 0.1-0.4 0.1-0.8 0-0.1 0.1-0.2 0-0.1 0.1-0.1c0.6-0.2 1.1-0.7 1.5-1.2 0.5-0.6 0.8-1.3 1.1-2 0.1-0.2 0.1-0.4 0-0.6q0-0.8-0.1-1.5-0.1-0.9-0.2-1.9 0-0.9-0.1-1.8 0-0.3-0.1-0.6z"/>
			<path id="&lt;Compound Path&gt;" fill-rule="evenodd" class="s3" d="m56.8 16.2q0.2-0.1 0.4-0.2 0.3-0.3 0.8-0.3 0.5 0 1.1-0.1 0.1 0 0.2 0-0.1 0.7-0.3 1.3-0.5 2.1-1 4.1c0 0.2-0.1 0.2-0.2 0.2q-0.9 0-1.7 0c-0.1 0-0.2-0.1-0.2-0.1q-0.1-0.1-0.2-0.2-0.6 0.2-1.2 0.3-0.6 0.1-1.1 0c-0.7-0.1-1-0.6-1.2-1.2-0.1-0.7 0-1.5 0.3-2.2q0.2-0.7 0.7-1.3c0.4-0.5 1-0.8 1.7-0.9 0.6-0.1 1.1 0.1 1.6 0.4q0.1 0.1 0.3 0.2zm-0.2 1.7c-0.1-0.2-0.1-0.4-0.2-0.6-0.2-0.4-0.6-0.5-0.9-0.3q-0.2 0-0.4 0.2c-0.6 0.5-0.9 1.1-0.9 1.9q0 0.4 0.2 0.7c0.2 0.3 0.5 0.4 0.8 0.3 0.3-0.1 0.5-0.2 0.7-0.4 0.4-0.5 0.6-1.1 0.7-1.8z"/>
			<path id="&lt;Path&gt;" class="s3" d="m35.4 32.6q-0.1 0.5-0.3 1c0 0.1-0.1 0.1-0.1 0.1q-1.7 0-3.4 0c-0.5 0-0.8-0.3-0.7-0.8q0.2-0.7 0.4-1.5 0.2-0.4 0.3-0.9h-1.4q0.1-0.3 0.2-0.6 0.1-0.3 0.1-0.5 0.1-0.1 0.2-0.1 0.6 0 1.1 0c0.1 0 0.2-0.1 0.2-0.1q0.2-0.5 0.3-1.1h-1.3q0-0.1 0-0.1 0.2-0.5 0.3-1c0-0.1 0.1-0.1 0.2-0.1q0.1 0 0.2 0h5 0.2q0 0.1 0 0.2-0.1 0.4-0.3 0.8c0 0.2 0 0.2-0.2 0.2q-0.9 0-1.9 0c-0.1 0-0.2 0.1-0.2 0.2q-0.1 0.5-0.3 1h2.2q0 0-0.1 0.1-0.1 0.5-0.2 0.9c-0.1 0.1-0.1 0.2-0.3 0.2q-0.9 0-1.8 0c-0.1 0-0.2 0-0.2 0.2q-0.2 0.7-0.5 1.5c0 0.3 0 0.4 0.3 0.4q0.9 0 1.7 0z"/>
			<path id="&lt;Compound Path&gt;" fill-rule="evenodd" class="s3" d="m32.5 21.4c-0.5 0-1-0.1-1.4-0.3-0.8-0.4-1.2-1.1-1.2-1.9q0-1.4 0.8-2.5c1-1.4 2.7-1.8 4.1-1.4 0.9 0.2 1.5 0.9 1.5 1.8 0.1 1.3-0.2 2.4-1.2 3.3q-1.1 1-2.6 1zm-0.9-2.5q0 0.1 0 0.2c0 0.5 0.4 0.8 0.9 0.9 0.7 0.1 1.3-0.2 1.7-0.7q0.5-0.9 0.5-1.9c-0.1-0.5-0.4-0.8-0.9-0.9-0.6-0.1-1.1 0-1.5 0.5-0.5 0.5-0.6 1.2-0.7 1.9z"/>
			<path id="&lt;Path&gt;" class="s3" d="m38.4 21.2h-1.6q0.2-0.7 0.3-1.4 0.5-2.2 0.9-4.4c0.1-0.1 0.1-0.1 0.3-0.1q0.6 0 1.4 0-0.1 0.4-0.2 0.7 0.1 0.1 0.1 0.1 0-0.1 0.1-0.1c0.7-0.8 1.6-1 2.7-0.8 0.5 0.2 0.9 0.6 0.9 1.1 0.1 0.5 0 0.9-0.1 1.3q-0.4 1.7-0.8 3.5c0 0.1 0 0.1-0.2 0.1q-0.6 0-1.2 0-0.1 0-0.2 0 0-0.4 0.1-0.8l0.7-3q0 0 0-0.1 0.1-0.9-0.9-0.8c-0.7 0-1.3 0.4-1.5 1.2q-0.4 1.6-0.7 3.3 0 0.1-0.1 0.2z"/>
			<path id="&lt;Path&gt;" class="s3" d="m21.6 15.3c-0.1 0.3-0.2 0.5-0.2 0.8q0.1-0.1 0.2-0.2 1.1-1.1 2.6-0.7c0.6 0.2 1 0.7 1 1.3 0 0.5-0.1 1-0.2 1.5q-0.3 1.5-0.7 3 0 0.1 0 0.2h-1.7q0.1-0.4 0.2-0.9 0.3-1.4 0.6-2.8 0.1-0.3 0.1-0.5-0.1-0.5-0.6-0.5c-0.8-0.1-1.4 0.2-1.7 0.9-0.2 0.4-0.2 0.8-0.3 1.2q-0.3 1.2-0.5 2.5c-0.1 0.1-0.1 0.1-0.2 0.1q-0.7 0-1.5 0 0.1-0.4 0.2-0.8 0.5-2.4 1-4.9c0-0.2 0.1-0.2 0.3-0.2q0.7 0 1.4 0z"/>
			<path id="&lt;Path&gt;" class="s3" d="m43.3 32.7q-0.2 0.5-0.3 0.9c0 0.1-0.1 0.1-0.2 0.1q-1.1 0-2.3 0c-0.4 0-0.7-0.3-0.7-0.7q0-0.8 0.1-1.6 0-0.8 0-1.7c0.1-0.2 0.1-0.2 0.3-0.2h1.4 0.2q0 0.4 0 0.7 0.3 0.1 0.5 0 0.3 0 0.3-0.2c0.1-0.4 0.1-0.4 0.7-0.4h1c-0.1 0.3-0.2 0.7-0.4 1-0.2 0.4-0.6 0.5-1 0.6q-0.5 0-0.9 0c-0.2 0-0.3 0-0.2 0.2q0 0.5 0 1c0 0.2 0 0.2 0.2 0.3q0.3 0 0.5 0 0.3 0 0.8 0z"/>
			<path id="&lt;Path&gt;" class="s3" d="m29.1 15.3q-0.1 0.5-0.2 0.9-0.6 2.4-1.2 4.9c0 0.1 0 0.1-0.2 0.1q-0.7 0-1.4 0-0.1 0-0.2 0 0.2-0.7 0.4-1.4 0.5-2.2 0.9-4.3c0.1-0.2 0.1-0.2 0.3-0.2q0.8 0 1.6 0z"/>
			<path id="&lt;Path&gt;" class="s3" d="m31.3 26.5q0.2-0.6 0.4-1.1c0-0.1 0-0.1 0.1-0.1q0.1 0 0.2 0 0.4 0 0.6-0.3 0.3-0.5 0.7-0.9c0-0.1 0.1-0.1 0.2-0.1q0.9-0.1 1.9-0.1 0 0 0.1 0.1-0.2 0.3-0.4 0.7h2.5q-0.2 0.5-0.3 1c0 0.1-0.1 0.1-0.2 0.1q-1.3 0-2.6 0c-0.2 0-0.3 0-0.4 0.1q-0.4 0.6-1.2 0.6-0.7 0-1.6 0z"/>
			<path id="&lt;Path&gt;" class="s3" d="m54.8 23.9q1 0 1.9 0c0.1 0 0.1 0.1 0.1 0.1q0.1 0.3 0.1 0.6c0 0.2 0.1 0.2 0.3 0.2q0.2 0 0.4 0 0 0.1 0 0.2-0.2 0.4-0.3 0.9-0.1 0.1-0.2 0.1-0.8 0-1.5 0-0.7 0-0.7-0.6-0.1-0.7-0.1-1.5z"/>
			<path id="&lt;Path&gt;" class="s3" d="m27.5 14.6q0.1-0.5 0.2-0.9 0.1-0.3 0.1-0.5c0 0 0.1-0.1 0.2-0.1q0.8 0 1.6 0 0 0 0 0.1-0.1 0.4-0.2 0.8 0 0.3-0.1 0.5c0 0-0.1 0.1-0.1 0.1q-0.8 0-1.6 0 0 0-0.1 0z"/>
		</g>
	</g>
</svg>