<svg version="1.2" xmlns="http://www.w3.org/2000/svg" viewBox="0 0 80 34" width="80" height="34">
	<title>Visa_Electron_logo-svg</title>
	<defs>
		<clipPath clipPathUnits="userSpaceOnUse" id="cp1">
			<path d="m197.73-178.39v385.5h-312.61v-385.5z"/>
		</clipPath>
	</defs>
	<style>
		.s0 { fill: #1a1f71 } 
	</style>
	<g id="layer1">
		<g id="g4153">
			<g id="Clip-Path: g4155" clip-path="url(#cp1)">
				<g id="g4155">
					<g id="g4161">
						<path id="path4163" fill-rule="evenodd" class="s0" d="m39.6 0.4l-5.3 23.8h-6.5l5.3-23.8zm33.7 20.3h-8.3l-1.4 3.5h-6.8l9.7-22c0.5-1.1 1.6-1.8 2.8-1.8h5.5l5.2 23.8h-5.9zm-1.1-4.8l-2-9-3.4 9zm-26.2 8.8c-2.9-0.1-5.7-0.6-7.2-1.3l1.1-5.2c1.5 0.7 3.4 1.5 6.7 1.5 1.8 0 3.8-0.7 3.8-2.3 0.1-1.1-0.8-1.8-3.3-3-2.5-1.1-5.7-3-5.7-6.5 0.1-4.6 4.6-7.8 11-7.8 2.4 0 4.4 0.5 6 1l-1.1 5.1c-2.9-1.3-5.5-1.2-6.4-1.1-1.9 0.2-2.7 1.1-2.7 2-0.1 2.8 9 3.1 9 9.4 0 5-4.5 8.2-11.2 8.2zm-15.6-24.2l-10.4 23.8h-6.9l-5.1-19c-0.3-1.2-0.6-1.6-1.6-2.1-1.5-0.8-4.1-1.5-6.3-2l0.1-0.7h11c1.4 0 2.7 0.9 3 2.4l2.7 13.8 6.7-16.2z"/>
					</g>
					<g id="g4165">
						<path id="path4167" class="s0" d="m47.9 30.8h-2.6v2.3h2.9v0.7h-3.8v-6.4h3.6v0.7h-2.7v2h2.6z"/>
					</g>
					<path id="path4169" class="s0" d="m50.4 27v6.8h-0.8v-6.8z"/>
					<g id="g4171">
						<path id="path4173" fill-rule="evenodd" class="s0" d="m52.7 31.7c0 1.1 0.7 1.6 1.6 1.6 0.7 0 1.1-0.1 1.4-0.3l0.2 0.6c-0.4 0.2-0.9 0.3-1.7 0.3-1.5 0-2.4-0.9-2.4-2.3 0-1.4 0.9-2.5 2.3-2.5 1.6 0 2 1.3 2 2.2q0 0.2 0 0.4zm2.6-0.6c0-0.6-0.2-1.4-1.2-1.4-0.9 0-1.3 0.8-1.4 1.4z"/>
					</g>
					<g id="g4175">
						<path id="path4177" class="s0" d="m60.9 33.7c-0.2 0.1-0.7 0.2-1.4 0.2-1.4 0-2.4-0.9-2.4-2.3 0-1.5 1-2.5 2.6-2.5 0.6 0 1 0.1 1.3 0.2l-0.2 0.7c-0.3-0.1-0.6-0.2-1.1-0.2-1.1 0-1.7 0.8-1.7 1.7 0 1.1 0.7 1.8 1.7 1.8 0.5 0 0.8-0.2 1.1-0.3z"/>
					</g>
					<g id="g4179">
						<path id="path4181" class="s0" d="m63.4 28.1v1.1h1.3v0.6h-1.3v2.5c0 0.6 0.2 0.9 0.7 0.9 0.2 0 0.4 0 0.5 0v0.6c-0.1 0.1-0.4 0.1-0.7 0.1q-0.7 0-1-0.3-0.4-0.4-0.3-1.2v-2.6h-0.8v-0.6h0.8v-0.9z"/>
					</g>
					<g id="g4183">
						<path id="path4185" class="s0" d="m65.9 30.6q0-0.8 0-1.4h0.8v0.9c0.3-0.6 0.8-1 1.4-1q0.1 0 0.2 0v0.8q-0.1 0-0.3 0c-0.6 0-1 0.4-1.2 1.1q0 0.1 0 0.4v2.4h-0.9z"/>
					</g>
					<g id="g4187">
						<path id="path4189" fill-rule="evenodd" class="s0" d="m73.8 31.5c0 1.7-1.3 2.4-2.4 2.4-1.4 0-2.4-0.9-2.4-2.4 0-1.5 1.1-2.4 2.4-2.4 1.4 0 2.4 1 2.4 2.4zm-3.9 0c0 1 0.6 1.8 1.5 1.8 0.8 0 1.5-0.8 1.5-1.8 0-0.8-0.4-1.8-1.5-1.8-1 0-1.5 0.9-1.5 1.8z"/>
					</g>
					<g id="g4191">
						<path id="path4193" class="s0" d="m75.1 30.4c0-0.4 0-0.8 0-1.2h0.8v0.8c0.3-0.5 0.9-0.9 1.7-0.9 0.6 0 1.7 0.4 1.7 2v2.7h-0.9v-2.6c0-0.8-0.3-1.4-1.1-1.4-0.6 0-1.1 0.4-1.2 0.8q-0.1 0.2-0.1 0.4v2.8h-0.9z"/>
					</g>
				</g>
			</g>
		</g>
	</g>
</svg>